<?xml version="1.0" encoding="utf-8"?>
<!-- Generator: Adobe Illustrator 25.0.0, SVG Export Plug-In . SVG Version: 6.00 Build 0)  -->
<svg version="1.1" id="Layer_1" xmlns="http://www.w3.org/2000/svg" xmlns:xlink="http://www.w3.org/1999/xlink" x="0px" y="0px"
	 viewBox="0 0 105.5 29.8" style="enable-background:new 0 0 105.5 29.8;" xml:space="preserve">
<style type="text/css">
	.st0{fill:#231F20;}
	.st1{fill:#A52B30;}
</style>
<g id="Layer_2_1_">
	<g id="Layer_1-2">
		<polygon class="st0" points="41.5,2.4 44.3,8.6 47.2,2.4 49.8,2.4 49.8,12.8 47.9,12.8 47.9,4.9 44.9,11.6 43.7,11.6 40.7,4.7 
			40.7,12.8 38.8,12.8 38.8,2.4 		"/>
		<path class="st0" d="M57,11.4c-0.4,1-1.3,1.6-2.4,1.6c-1.2,0.1-2.3-0.5-2.7-1.6c-0.2-0.4-0.3-0.9-0.2-1.4V5h1.9v4.8
			c0,0.4,0.1,0.8,0.4,1.1c0.2,0.2,0.6,0.4,0.9,0.4c0.3,0,0.6,0,0.9-0.2c0.2-0.1,0.5-0.3,0.6-0.4c0.4-0.5,0.6-1.2,0.6-1.8V5h1.9v7.8
			H57V11.4z"/>
		<path class="st0" d="M62.7,6.3c0.7-1.4,2.4-2,3.8-1.2c0.3,0.2,0.6,0.4,0.8,0.6c0.5,0.7,0.8,1.6,0.7,2.5v4.5h-1.9V8.2
			c0-0.5-0.1-0.9-0.4-1.3c-0.3-0.3-0.7-0.5-1.2-0.4c-0.5,0-1,0.3-1.3,0.7c-0.4,0.6-0.6,1.3-0.6,2v3.6h-1.9V5h1.7L62.7,6.3z"/>
		<path class="st0" d="M69.8,2.5c0-0.3,0.1-0.6,0.3-0.8c0.5-0.4,1.2-0.4,1.7,0c0.2,0.2,0.3,0.5,0.3,0.8c0,0.3-0.1,0.6-0.3,0.8
			c-0.5,0.4-1.2,0.4-1.7,0C69.9,3.1,69.8,2.8,69.8,2.5z"/>
		<rect x="70" y="5" class="st0" width="1.9" height="7.8"/>
		<path class="st0" d="M77.1,4.8c0.4,0,0.9,0.1,1.3,0.2c0.4,0.2,0.7,0.4,1,0.7c0.6,0.5,0.9,1.2,1,1.9h-1.9C78.4,7.3,78.2,7,78,6.8
			c-0.2-0.2-0.5-0.3-0.8-0.3c-0.3,0-0.5,0-0.8,0.1C76.2,6.7,76,6.9,75.9,7c-0.4,0.5-0.6,1.2-0.5,1.9c0,0.6,0.1,1.3,0.5,1.8
			c0.3,0.4,0.8,0.6,1.2,0.6c0.4,0,0.8-0.1,1.1-0.3c0.2-0.3,0.3-0.6,0.3-0.9h1.9c0,0.8-0.3,1.6-0.8,2.1c-0.7,0.6-1.5,0.9-2.4,0.9
			c-1,0-1.9-0.4-2.6-1.1c-0.7-0.8-1.1-1.9-1.1-3c0-1.1,0.4-2.2,1.1-3C75.2,5.2,76.1,4.8,77.1,4.8z"/>
		<path class="st0" d="M81.6,2.5c0-0.3,0.1-0.6,0.3-0.8c0.2-0.2,0.5-0.3,0.9-0.3c0.3,0,0.6,0.1,0.9,0.3C83.9,1.9,84,2.2,84,2.5
			c0,0.3-0.1,0.6-0.3,0.8c-0.2,0.2-0.5,0.3-0.9,0.3c-0.3,0-0.6-0.1-0.9-0.3C81.7,3.1,81.6,2.8,81.6,2.5z"/>
		<rect x="81.8" y="5" class="st0" width="1.9" height="7.8"/>
		<path class="st0" d="M92.4,5.9c-0.6-0.7-1.5-1.1-2.5-1.1c-0.9,0-1.8,0.4-2.2,1.3L87.5,5H86v10.9h1.9v-3.7c0.5,0.6,1.3,0.9,2.1,0.8
			c0.9,0,1.8-0.4,2.4-1.1c0.8-0.8,1.2-1.9,1.1-3C93.6,7.8,93.2,6.7,92.4,5.9z M90.9,10.7c-0.2,0.2-0.4,0.3-0.6,0.4
			c-0.2,0.1-0.5,0.1-0.7,0.1c-0.4,0-0.9-0.1-1.2-0.4c-0.3-0.3-0.5-0.8-0.5-1.2V8.2c0-0.5,0.2-1,0.5-1.3c0.4-0.3,0.8-0.5,1.3-0.5
			c0.5,0,1,0.2,1.3,0.6c0.4,0.5,0.6,1.1,0.6,1.8C91.6,9.5,91.4,10.2,90.9,10.7z"/>
		<path class="st0" d="M101.1,6.5c-0.5-1.1-1.5-1.7-3.1-1.7c-0.9-0.1-1.8,0.2-2.6,0.6c-0.6,0.4-1,1.2-0.9,1.9h2.1
			c0-0.3,0.1-0.6,0.4-0.8c0.3-0.2,0.7-0.3,1.1-0.3c0.4,0,0.8,0.1,1.1,0.4c0.2,0.4,0.4,0.8,0.3,1.2v0.8c-0.7-0.2-1.4-0.3-2.1-0.3
			c-0.8,0-1.6,0.2-2.3,0.6c-0.6,0.4-0.9,1-0.8,1.7c0,0.7,0.3,1.3,0.8,1.8c0.7,0.5,1.5,0.8,2.3,0.7c0.9,0.1,1.8-0.4,2.3-1.3l0.1,1
			h1.7V7.8C101.4,7.4,101.3,6.9,101.1,6.5z M98.9,11c-0.7,0.6-1.6,0.7-2.4,0.2c-0.2-0.2-0.4-0.5-0.3-0.7c0-0.7,0.5-1,1.5-1
			c0.6,0,1.2,0.1,1.8,0.3C99.5,10.2,99.3,10.7,98.9,11z"/>
		<rect x="103.2" y="1.8" class="st0" width="1.9" height="11"/>
		<polygon class="st0" points="41.5,15.4 44.3,21.6 47.2,15.4 49.8,15.4 49.8,25.8 47.9,25.8 47.9,17.9 44.9,24.6 43.7,24.6 
			40.7,17.7 40.7,25.8 38.8,25.8 38.8,15.4 		"/>
		<path class="st0" d="M57.5,18.8c-0.3-0.4-0.7-0.6-1.2-0.8c-0.5-0.2-1-0.2-1.5-0.2c-1,0-2,0.3-2.7,1c-0.8,0.8-1.2,2-1.1,3.1
			C51,23,51.4,24.2,52.2,25c0.7,0.7,1.7,1,2.7,1c1,0.1,1.9-0.3,2.7-1c0.8-0.8,1.2-1.9,1.1-3.1C58.7,20.8,58.3,19.6,57.5,18.8z
			 M56.2,23.7c-0.4,0.4-0.9,0.6-1.4,0.6c-0.5,0-1-0.2-1.3-0.6c-0.4-0.5-0.5-1.2-0.4-1.9c-0.1-0.7,0.1-1.3,0.5-1.9
			c0.4-0.4,0.9-0.6,1.4-0.6c0.5,0,1,0.2,1.3,0.6c0.4,0.5,0.5,1.2,0.5,1.9C56.8,22.5,56.6,23.2,56.2,23.7z"/>
		<path class="st0" d="M61.7,19.3c0.7-1.4,2.4-2,3.8-1.2c0.3,0.2,0.6,0.4,0.8,0.6c0.5,0.7,0.8,1.6,0.7,2.5v4.5h-1.9v-4.5
			c0-0.5-0.1-0.9-0.4-1.3c-0.3-0.3-0.7-0.5-1.2-0.4c-0.5,0-1,0.3-1.3,0.7c-0.4,0.6-0.6,1.3-0.6,2v3.6h-1.9V18h1.7L61.7,19.3z"/>
		<path class="st0" d="M71.8,24.5c-0.5,0-1-0.2-1.3-0.6c-0.3-0.4-0.5-1-0.5-1.5h5c0-0.3,0.1-0.7,0.1-1c0-0.4-0.1-0.8-0.2-1.2
			c-0.1-0.4-0.3-0.8-0.6-1.2c-0.6-0.8-1.5-1.2-2.5-1.1c-1,0-1.9,0.4-2.6,1.1c-0.7,0.8-1.1,1.9-1.1,3c0,1.1,0.3,2.2,1.1,3
			c0.7,0.7,1.6,1.2,2.6,1.1c0.8,0,1.6-0.2,2.2-0.7c0.6-0.4,1-1.1,1.1-1.8h-1.9C73.1,24.1,72.5,24.6,71.8,24.5z M70.6,19.8
			c0.5-0.5,1.3-0.7,2-0.4c0.6,0.4,0.9,1,0.8,1.7h-3.3C70.1,20.7,70.3,20.2,70.6,19.8z"/>
		<path class="st0" d="M77.4,18l1.9,5.6l1.6-5.6h1.9l-3,9.2c-0.2,0.7-0.6,1.4-1.1,2c-0.5,0.4-1.1,0.6-1.7,0.6
			c-0.7,0-1.4-0.2-2.1-0.5v-1.7c0.5,0.3,1.1,0.5,1.7,0.5c0.4,0,0.7-0.2,0.9-0.5c0.3-0.4,0.5-0.7,0.6-1.2l0.2-0.8L75.2,18H77.4z"/>
		<polygon class="st1" points="11.5,24.4 8.1,19.5 8.1,27.7 11.5,27.7 		"/>
		<polygon class="st1" points="19.6,19.5 16.2,24.4 16.2,27.7 19.6,27.7 		"/>
		<polygon class="st1" points="4.7,27.7 4.7,9 13.9,21.8 23,9 23,27.7 27.8,27.7 27.8,4.6 27.8,0 23.1,0 13.9,13.1 4.7,0 0,0 0,4.6 
			0,27.7 		"/>
		<circle class="st1" cx="13.9" cy="3" r="3"/>
	</g>
</g>
</svg>
