<?xml version="1.0" encoding="utf-8"?>
<!-- Generator: Adobe Illustrator 24.2.1, SVG Export Plug-In . SVG Version: 6.00 Build 0)  -->
<svg version="1.1" id="Layer_1" xmlns="http://www.w3.org/2000/svg" xmlns:xlink="http://www.w3.org/1999/xlink" x="0px" y="0px"
	 width="125.4px" height="38px" viewBox="0 0 125.4 38" style="enable-background:new 0 0 125.4 38;" xml:space="preserve">
<style type="text/css">
	.st0{fill:none;}
	.st1{fill:#4285F4;}
</style>
<g>
	<rect class="st0" width="125.4" height="38"/>
	<g>
		<polygon points="52.9,12.7 49.5,5.3 46.3,5.3 46.3,17.7 48.5,17.7 48.5,8 52.1,16.3 53.6,16.3 57.1,8.3 57.1,17.7 59.4,17.7 
			59.4,5.3 56.3,5.3 		"/>
		<path d="M68,13c0,0.9-0.3,1.6-0.7,2.2c-0.2,0.2-0.5,0.4-0.8,0.5s-0.7,0.2-1.1,0.2s-0.8-0.1-1.1-0.4c-0.3-0.3-0.4-0.8-0.4-1.4V8.4
			h-2.3v5.9c0,0.6,0.1,1.2,0.3,1.6c0.5,1.3,1.6,1.9,3.2,1.9c1.3,0,2.2-0.6,2.8-1.9v1.7h2.3V8.4H68V13z"/>
		<path d="M77.8,8.2c-1.3,0-2.3,0.6-2.9,1.9l-0.2-1.6h-2v9.3H75v-4.3c0-1.1,0.3-1.9,0.7-2.4c0.4-0.5,0.9-0.8,1.5-0.8
			s1.1,0.2,1.4,0.5s0.5,0.9,0.5,1.6v5.4h2.3v-5.4c0-1.2-0.3-2.2-0.9-3C79.8,8.5,78.9,8.2,77.8,8.2z"/>
		<rect x="83.6" y="8.4" width="2.3" height="9.3"/>
		<path d="M84.7,6.7c0.4,0,0.8-0.1,1-0.4c0.2-0.2,0.4-0.6,0.4-1s-0.1-0.7-0.4-1c-0.2-0.2-0.6-0.4-1-0.4s-0.8,0.1-1,0.4
			c-0.2,0.2-0.4,0.6-0.4,1s0.1,0.7,0.4,1C83.9,6.6,84.3,6.7,84.7,6.7z"/>
		<path d="M92,18c1.2,0,2.2-0.3,2.9-1c0.7-0.7,1-1.5,1-2.5h-2.3c0,0.5-0.1,0.8-0.4,1.1S92.5,16,91.9,16c-0.6,0-1.1-0.2-1.5-0.7
			s-0.6-1.2-0.6-2.1s0.2-1.7,0.6-2.2c0.2-0.2,0.4-0.4,0.7-0.5c0.3-0.1,0.6-0.2,0.9-0.2c0.4,0,0.7,0.1,0.9,0.4c0.3,0.3,0.5,0.6,0.6,1
			l2.3-0.1c-0.1-0.9-0.5-1.7-1.1-2.3C94.4,9,94,8.7,93.5,8.5s-1-0.3-1.6-0.3c-1.2,0-2.3,0.4-3.1,1.3c-0.9,0.9-1.3,2.1-1.3,3.6
			c0,1.4,0.4,2.6,1.3,3.6C89.8,17.5,90.8,18,92,18z"/>
		<rect x="97.7" y="8.4" width="2.3" height="9.3"/>
		<path d="M98.8,4.1c-0.4,0-0.8,0.1-1,0.4c-0.2,0.2-0.4,0.6-0.4,1s0.1,0.7,0.4,1c0.2,0.2,0.6,0.4,1,0.4s0.8-0.1,1-0.4
			c0.2-0.2,0.4-0.6,0.4-1s-0.1-0.7-0.4-1C99.6,4.2,99.2,4.1,98.8,4.1z"/>
		<path d="M107.3,8.2c-1.2,0-2.1,0.5-2.7,1.5l-0.2-1.3h-1.9v13.8h2.3v-5.3c0.5,0.7,1.3,1,2.5,1c1.1,0,2.1-0.4,2.9-1.3
			c0.9-0.9,1.3-2.1,1.3-3.6s-0.4-2.7-1.3-3.6C109.5,8.6,108.5,8.2,107.3,8.2z M108.5,15.2c-0.2,0.2-0.5,0.4-0.8,0.5
			s-0.6,0.2-0.8,0.2c-0.6,0-1.1-0.2-1.5-0.5c-0.4-0.4-0.6-0.9-0.6-1.5v-1.7c0-0.7,0.2-1.2,0.6-1.6c0.4-0.4,0.9-0.5,1.5-0.5
			s1.2,0.3,1.6,0.8s0.7,1.2,0.7,2.1S109,14.7,108.5,15.2z"/>
		<path d="M117,8.2c-1.3,0-2.4,0.2-3.1,0.7s-1.1,1.2-1.1,2.3h2.5c0-0.4,0.2-0.8,0.5-1s0.8-0.4,1.4-0.4s1,0.2,1.3,0.5
			s0.4,0.8,0.4,1.4v0.9c-1-0.2-1.8-0.4-2.6-0.4c-1.2,0-2.1,0.2-2.8,0.7s-1,1.1-1,2s0.3,1.6,0.9,2.1c0.7,0.6,1.6,0.9,2.8,0.9
			c1.2,0,2.2-0.5,2.7-1.5l0.2,1.2h2v-5.9c0-0.6-0.1-1.2-0.3-1.6C120.1,8.8,118.9,8.2,117,8.2z M118.1,15.6c-0.4,0.4-0.9,0.6-1.5,0.6
			s-1.1-0.1-1.3-0.4c-0.3-0.2-0.4-0.5-0.4-0.9c0-0.8,0.6-1.2,1.8-1.2c0.6,0,1.3,0.1,2.1,0.3C118.7,14.7,118.5,15.2,118.1,15.6z"/>
		<rect x="123.1" y="4.6" width="2.3" height="13.1"/>
		<polygon points="52.9,28.2 49.5,20.8 46.3,20.8 46.3,33.2 48.5,33.2 48.5,23.5 52.1,31.9 53.6,31.9 57.1,23.8 57.1,33.2 
			59.4,33.2 59.4,20.8 56.3,20.8 		"/>
		<path d="M67.2,24c-0.5-0.2-1.1-0.3-1.8-0.3c-1.3,0-2.4,0.4-3.2,1.2c-0.9,0.9-1.3,2.1-1.3,3.7s0.4,2.8,1.3,3.7
			c0.8,0.8,1.9,1.2,3.2,1.2s2.4-0.4,3.2-1.2c0.9-0.9,1.3-2.1,1.3-3.7s-0.4-2.8-1.3-3.7C68.2,24.5,67.8,24.2,67.2,24z M67,30.8
			c-0.4,0.5-1,0.7-1.7,0.7s-1.2-0.2-1.6-0.7s-0.6-1.2-0.6-2.2s0.2-1.7,0.6-2.2c0.4-0.5,1-0.7,1.7-0.7s1.2,0.2,1.6,0.7
			s0.6,1.2,0.6,2.2C67.7,29.5,67.5,30.3,67,30.8z"/>
		<path d="M76.6,23.7c-1.3,0-2.3,0.6-2.9,1.9L73.5,24h-2v9.3h2.3V29c0-1.1,0.3-1.9,0.7-2.4c0.4-0.5,0.9-0.8,1.5-0.8s1.1,0.2,1.4,0.5
			s0.5,0.9,0.5,1.6v5.4h2.3v-5.4c0-1.2-0.3-2.2-0.9-3C78.6,24.1,77.8,23.7,76.6,23.7z"/>
		<path d="M87.4,30.4c-0.2,0.8-0.7,1.2-1.7,1.2c-0.7,0-1.2-0.2-1.6-0.7s-0.5-1.1-0.6-1.8h6c0.1-0.4,0.1-0.8,0.1-1.2
			c0-0.4-0.1-0.9-0.2-1.5c-0.2-0.5-0.4-1-0.7-1.4c-0.7-0.9-1.7-1.4-3-1.4c-1.2,0-2.3,0.4-3.1,1.3c-0.9,0.9-1.3,2.1-1.3,3.6
			s0.4,2.6,1.3,3.6c0.8,0.9,1.9,1.3,3.1,1.3c1,0,1.9-0.3,2.7-0.8c0.7-0.5,1.1-1.3,1.3-2.2C89.7,30.4,87.4,30.4,87.4,30.4z
			 M84.2,26.1c0.4-0.4,0.9-0.6,1.5-0.6c0.3,0,0.6,0.1,0.9,0.2c0.6,0.3,1,1,1,2h-4C83.7,27,83.9,26.5,84.2,26.1z"/>
		<path d="M94.6,30.6l-2.2-6.7h-2.6l3.7,9.3l-0.3,0.9c-0.2,0.6-0.4,1-0.7,1.4c-0.3,0.4-0.7,0.5-1.1,0.5c-0.7,0-1.3-0.2-2-0.6v2
			c0.8,0.4,1.7,0.6,2.5,0.6s1.5-0.2,2-0.7s1-1.3,1.3-2.4l3.6-11h-2.3L94.6,30.6z"/>
	</g>
	<g>
		<polygon class="st1" points="9.7,35.5 13.7,35.5 13.7,31.5 9.7,25.7 		"/>
		<polygon class="st1" points="19.4,35.5 23.4,35.5 23.4,25.7 19.4,31.5 		"/>
		<polygon class="st1" points="27.5,2.5 16.6,18.1 5.6,2.5 0,2.5 0,8 0,35.5 5.6,35.5 5.6,13.1 16.6,28.5 27.5,13.1 27.5,35.5 
			33.1,35.5 33.1,8 33.1,2.5 		"/>
		<path class="st1" d="M16.6,9.6c2,0,3.6-1.6,3.6-3.6s-1.6-3.6-3.6-3.6S13,4.1,13,6S14.6,9.6,16.6,9.6z"/>
	</g>
</g>
</svg>
