<svg xmlns="http://www.w3.org/2000/svg" viewBox="0 0 1200 267"><defs><style>.cls-1{fill:#00ab52;}.cls-2{fill:#009560;}.cls-3{fill:#007278;}.cls-4{fill:#25215d;}.cls-5{fill:#27235e;}</style></defs><g id="Layer_1" data-name="Layer 1"><path class="cls-1" d="M1199,72.46a24.42,24.42,0,1,1,0-.08v.08"/><path class="cls-1" d="M20.57,140.07a21.82,21.82,0,0,1-3.51-.32,18.78,18.78,0,0,1-14.95-21.9,86.64,86.64,0,0,1,85-70.3,18.71,18.71,0,0,1,0,37.41,49.14,49.14,0,0,0-48.27,40,18.72,18.72,0,0,1-18.31,15.15"/><path class="cls-2" d="M25.05,180.19A18.67,18.67,0,0,1,8,169,85.93,85.93,0,0,1,.59,134.11a89.53,89.53,0,0,1,1.52-16.26,18.71,18.71,0,0,1,36.77,7,47.27,47.27,0,0,0-.88,9.27,48.8,48.8,0,0,0,4,20,18.71,18.71,0,0,1-16.94,26.1"/><path class="cls-3" d="M61.29,215.59a18.7,18.7,0,0,1-7.11-1.44A86.22,86.22,0,0,1,8,169,18.7,18.7,0,0,1,41.8,153.13c.12.27.24.53.35.8a49.76,49.76,0,0,0,26.38,25.66,18.7,18.7,0,0,1-7.16,36"/><path class="cls-4" d="M325.64,58.38a86.8,86.8,0,0,0-44-11.39,85,85,0,0,0-43.36,11.43,84,84,0,0,0-30.89,31.17,87.26,87.26,0,0,0-11.39,44V247.8a18.49,18.49,0,0,0,5.52,13.87,19,19,0,0,0,13.63,5.27,18.22,18.22,0,0,0,19.1-17.29c0-.62,0-1.23,0-1.85V199a78.31,78.31,0,0,0,123.28-21.42,93.21,93.21,0,0,0,10.43-44,88,88,0,0,0-11.23-44,82.66,82.66,0,0,0-31.13-31.25m-1.36,101.71a48.86,48.86,0,0,1-17.5,18.46h0a49.52,49.52,0,0,1-49.79,0,48,48,0,0,1-17.47-18.42,54.87,54.87,0,0,1-6.35-26.54,55.93,55.93,0,0,1,6.35-26.69,48.65,48.65,0,0,1,66-19.27l1.27.72A48.73,48.73,0,0,1,324.28,107a54.91,54.91,0,0,1,6.51,26.65A54,54,0,0,1,324.28,160.13Z"/><path class="cls-4" d="M515.22,57.7A79,79,0,0,0,473.58,47,86.2,86.2,0,0,0,430.06,58.1a78.14,78.14,0,0,0-29.85,31,91.89,91.89,0,0,0-10.75,44.56,87.53,87.53,0,0,0,11.39,44.52A80.75,80.75,0,0,0,432.58,209a93.43,93.43,0,0,0,75.52,5.59,85.87,85.87,0,0,0,26.3-13.66,14.74,14.74,0,0,0,6.35-12,18.1,18.1,0,0,0-18.26-17.07,19.36,19.36,0,0,0-12.23,4,52,52,0,0,1-14.78,7.43,56.75,56.75,0,0,1-53.19-8.67A47.4,47.4,0,0,1,425.7,148H534a17.47,17.47,0,0,0,12.55-4.84,16.38,16.38,0,0,0,5.07-12.23,97.34,97.34,0,0,0-9.31-43.35,70.8,70.8,0,0,0-27.13-29.9M426.1,116.29a45.54,45.54,0,0,1,47.48-35.85,39.45,39.45,0,0,1,29.09,10.79,47,47,0,0,1,13,25.06Z"/><path class="cls-4" d="M700.8,56.11h0A80.13,80.13,0,0,0,662,46.72a79.17,79.17,0,0,0-29.46,5.47A72.37,72.37,0,0,0,614.8,62.3,18.33,18.33,0,0,0,610,53.51a20.38,20.38,0,0,0-27.42,0A18.45,18.45,0,0,0,577,67.38V200a19.46,19.46,0,0,0,33,13.62A18.89,18.89,0,0,0,615.32,200V116.05a29.73,29.73,0,0,1,5.12-17.11A36.77,36.77,0,0,1,635,86.68,47.34,47.34,0,0,1,656,82a44.16,44.16,0,0,1,31.65,11.27c7.79,7.43,11.71,18.7,11.71,33.57V200a19.14,19.14,0,1,0,38.28,0V126.64a89.75,89.75,0,0,0-9.71-42.88,67.08,67.08,0,0,0-27.17-27.65"/><path class="cls-4" d="M921.11,53.23a20.43,20.43,0,0,0-27.46,0,18.5,18.5,0,0,0-5.51,13.83V151A30,30,0,0,1,883,168.12a36.93,36.93,0,0,1-14.54,12.35,47.35,47.35,0,0,1-21.06,4.63,43.51,43.51,0,0,1-31.61-11.35c-8-7.39-11.71-18.7-11.71-33.56V67a19.14,19.14,0,1,0-38.28,0v73.16a89.79,89.79,0,0,0,9.71,43.08,67,67,0,0,0,27.17,27.62,80.21,80.21,0,0,0,38.8,9.39A79.32,79.32,0,0,0,871,214.79a70.7,70.7,0,0,0,17.79-10.15,18.19,18.19,0,0,0,4.91,8.67,20,20,0,0,0,27.54,0,19,19,0,0,0,5.27-13.58V67a18.86,18.86,0,0,0-5.31-13.79Z"/><path class="cls-5" d="M87.15,220.67a86.15,86.15,0,0,1-33-6.52,18.71,18.71,0,1,1,14.35-34.56A49.16,49.16,0,1,0,87.15,85a18.71,18.71,0,0,1,0-37.41h0a86.56,86.56,0,0,1,0,173.12"/><path class="cls-4" d="M1084,58.38A86.83,86.83,0,0,0,1040,47a85,85,0,0,0-43.36,11.43,84,84,0,0,0-30.89,31.17,87.26,87.26,0,0,0-11.39,44V247.8a18.49,18.49,0,0,0,5.52,13.87,19,19,0,0,0,13.62,5.27,18.22,18.22,0,0,0,19.11-17.29c0-.62,0-1.23,0-1.85V199a78.32,78.32,0,0,0,123.28-21.42,93.21,93.21,0,0,0,10.43-44,88.06,88.06,0,0,0-11.23-44A82.66,82.66,0,0,0,1084,58.42m-1.36,101.71a48.86,48.86,0,0,1-17.5,18.46h0a49.54,49.54,0,0,1-49.8,0,48,48,0,0,1-17.46-18.42,54.87,54.87,0,0,1-6.35-26.54,55.93,55.93,0,0,1,6.35-26.69,48.64,48.64,0,0,1,66-19.27l1.27.72A48.73,48.73,0,0,1,1082.59,107a54.91,54.91,0,0,1,6.51,26.65A54,54,0,0,1,1082.59,160.13Z"/><path class="cls-1" d="M1199,195.46a24.42,24.42,0,1,1,0-.08v.08"/></g></svg>