<svg width="683" height="673" viewBox="0 0 683 673" fill="none" xmlns="http://www.w3.org/2000/svg">
<line x1="293.5" y1="-2.18557e-08" x2="293.5" y2="78" stroke="black" stroke-opacity="0.05"/>
<circle cx="385.567" cy="518.25" r="133.75" fill="#FBC02D"/>
<circle cx="532.986" cy="384.5" r="65.4106" fill="#9C27B0"/>
<circle cx="584.728" cy="264.418" r="65.4106" fill="#C2185B"/>
<circle cx="526.151" cy="466.507" r="16.5967" fill="#9C27B0"/>
<circle cx="550.559" cy="456.744" r="9.76278" fill="#00796B"/>
<circle cx="548.118" cy="472.853" r="6.3458" fill="#FBC02D"/>
<circle cx="385.567" cy="250.75" r="132.25" fill="#00796B" stroke="black" stroke-width="3"/>
<path d="M519.145 387.333H523.664V388.713H517.416V378.76H519.145V387.333ZM529.249 388.713C529.176 388.572 529.112 388.342 529.057 388.023C528.529 388.574 527.881 388.85 527.116 388.85C526.373 388.85 525.767 388.638 525.297 388.214C524.828 387.791 524.593 387.266 524.593 386.642C524.593 385.854 524.885 385.25 525.468 384.831C526.056 384.407 526.895 384.195 527.984 384.195H529.003V383.709C529.003 383.327 528.895 383.021 528.681 382.793C528.467 382.561 528.141 382.445 527.704 382.445C527.325 382.445 527.016 382.541 526.774 382.732C526.532 382.919 526.412 383.158 526.412 383.45H524.751C524.751 383.044 524.885 382.666 525.154 382.315C525.423 381.959 525.787 381.681 526.248 381.481C526.712 381.28 527.23 381.18 527.799 381.18C528.665 381.18 529.356 381.399 529.871 381.836C530.386 382.269 530.65 382.88 530.664 383.668V387.004C530.664 387.67 530.757 388.201 530.944 388.597V388.713H529.249ZM527.423 387.517C527.752 387.517 528.059 387.437 528.346 387.278C528.638 387.118 528.857 386.904 529.003 386.635V385.241H528.107C527.492 385.241 527.029 385.348 526.719 385.562C526.409 385.776 526.254 386.079 526.254 386.471C526.254 386.79 526.359 387.045 526.569 387.237C526.783 387.424 527.068 387.517 527.423 387.517ZM538.894 385.09C538.894 386.239 538.637 387.153 538.122 387.832C537.611 388.511 536.907 388.85 536.009 388.85C535.143 388.85 534.469 388.538 533.986 387.914L533.904 388.713H532.4V378.213H534.061V382.028C534.54 381.463 535.184 381.18 535.996 381.18C536.898 381.18 537.607 381.515 538.122 382.185C538.637 382.855 538.894 383.792 538.894 384.995V385.09ZM537.233 384.947C537.233 384.145 537.092 383.543 536.809 383.142C536.527 382.741 536.116 382.541 535.579 382.541C534.859 382.541 534.353 382.855 534.061 383.484V386.533C534.357 387.175 534.868 387.497 535.592 387.497C536.112 387.497 536.513 387.303 536.796 386.916C537.078 386.528 537.224 385.943 537.233 385.159V384.947ZM543.549 388.85C542.497 388.85 541.642 388.52 540.986 387.859C540.334 387.194 540.008 386.309 540.008 385.207V385.001C540.008 384.263 540.15 383.605 540.432 383.026C540.719 382.443 541.12 381.989 541.635 381.666C542.15 381.342 542.725 381.18 543.358 381.18C544.365 381.18 545.142 381.501 545.689 382.144C546.24 382.787 546.516 383.696 546.516 384.872V385.542H541.683C541.733 386.152 541.936 386.635 542.292 386.991C542.652 387.346 543.103 387.524 543.645 387.524C544.406 387.524 545.026 387.216 545.504 386.601L546.4 387.456C546.104 387.898 545.707 388.242 545.211 388.488C544.718 388.729 544.165 388.85 543.549 388.85ZM543.351 382.513C542.895 382.513 542.526 382.673 542.244 382.992C541.966 383.311 541.788 383.755 541.711 384.325H544.876V384.202C544.839 383.646 544.691 383.226 544.431 382.944C544.171 382.657 543.811 382.513 543.351 382.513ZM549.579 388.713H547.918V378.213H549.579V388.713Z" fill="white"/>
<path d="M570.4 267.25H574.918V268.631H568.67V258.678H570.4V267.25ZM580.503 268.631C580.43 268.49 580.367 268.26 580.312 267.941C579.783 268.492 579.136 268.768 578.371 268.768C577.628 268.768 577.022 268.556 576.552 268.132C576.083 267.708 575.848 267.184 575.848 266.56C575.848 265.772 576.14 265.168 576.723 264.749C577.311 264.325 578.15 264.113 579.239 264.113H580.257V263.627C580.257 263.245 580.15 262.939 579.936 262.711C579.722 262.479 579.396 262.363 578.958 262.363C578.58 262.363 578.27 262.458 578.029 262.65C577.787 262.837 577.666 263.076 577.666 263.368H576.005C576.005 262.962 576.14 262.584 576.409 262.233C576.678 261.877 577.042 261.599 577.502 261.399C577.967 261.198 578.484 261.098 579.054 261.098C579.92 261.098 580.61 261.317 581.125 261.754C581.64 262.187 581.905 262.798 581.918 263.586V266.922C581.918 267.588 582.012 268.119 582.199 268.515V268.631H580.503ZM578.678 267.435C579.006 267.435 579.314 267.355 579.601 267.196C579.893 267.036 580.111 266.822 580.257 266.553V265.159H579.362C578.747 265.159 578.284 265.266 577.974 265.48C577.664 265.694 577.509 265.997 577.509 266.389C577.509 266.708 577.614 266.963 577.824 267.155C578.038 267.342 578.323 267.435 578.678 267.435ZM590.149 265.008C590.149 266.157 589.891 267.07 589.376 267.75C588.866 268.429 588.162 268.768 587.264 268.768C586.398 268.768 585.724 268.456 585.241 267.832L585.159 268.631H583.655V258.131H585.316V261.946C585.794 261.381 586.439 261.098 587.25 261.098C588.153 261.098 588.861 261.433 589.376 262.103C589.891 262.773 590.149 263.709 590.149 264.913V265.008ZM588.488 264.865C588.488 264.063 588.346 263.461 588.064 263.06C587.781 262.659 587.371 262.458 586.833 262.458C586.113 262.458 585.608 262.773 585.316 263.402V266.451C585.612 267.093 586.123 267.415 586.847 267.415C587.367 267.415 587.768 267.221 588.05 266.833C588.333 266.446 588.479 265.861 588.488 265.077V264.865ZM594.804 268.768C593.751 268.768 592.897 268.438 592.241 267.777C591.589 267.111 591.263 266.227 591.263 265.125V264.919C591.263 264.181 591.404 263.523 591.687 262.944C591.974 262.361 592.375 261.907 592.89 261.583C593.405 261.26 593.979 261.098 594.613 261.098C595.62 261.098 596.397 261.419 596.944 262.062C597.495 262.705 597.771 263.614 597.771 264.79V265.459H592.938C592.988 266.07 593.191 266.553 593.546 266.909C593.906 267.264 594.358 267.442 594.9 267.442C595.661 267.442 596.281 267.134 596.759 266.519L597.655 267.374C597.359 267.816 596.962 268.16 596.465 268.406C595.973 268.647 595.419 268.768 594.804 268.768ZM594.606 262.431C594.15 262.431 593.781 262.591 593.498 262.91C593.22 263.229 593.043 263.673 592.965 264.243H596.13V264.12C596.094 263.564 595.946 263.144 595.686 262.862C595.426 262.575 595.066 262.431 594.606 262.431ZM600.833 268.631H599.172V258.131H600.833V268.631Z" fill="white"/>
<path d="M372.748 520.728H377.266V522.109H371.018V512.155H372.748V520.728ZM382.851 522.109C382.778 521.967 382.715 521.737 382.66 521.418C382.131 521.97 381.484 522.245 380.719 522.245C379.976 522.245 379.37 522.033 378.9 521.609C378.431 521.186 378.196 520.662 378.196 520.037C378.196 519.249 378.488 518.645 379.071 518.226C379.659 517.802 380.498 517.59 381.587 517.59H382.605V517.105C382.605 516.722 382.498 516.416 382.284 516.189C382.07 515.956 381.744 515.84 381.306 515.84C380.928 515.84 380.618 515.936 380.377 516.127C380.135 516.314 380.014 516.553 380.014 516.845H378.353C378.353 516.439 378.488 516.061 378.757 515.71C379.026 515.355 379.39 515.077 379.85 514.876C380.315 514.676 380.832 514.575 381.402 514.575C382.268 514.575 382.958 514.794 383.473 515.232C383.988 515.665 384.253 516.275 384.266 517.064V520.4C384.266 521.065 384.36 521.596 384.547 521.992V522.109H382.851ZM381.026 520.912C381.354 520.912 381.662 520.832 381.949 520.673C382.241 520.513 382.459 520.299 382.605 520.03V518.636H381.71C381.095 518.636 380.632 518.743 380.322 518.957C380.012 519.171 379.857 519.474 379.857 519.866C379.857 520.185 379.962 520.441 380.172 520.632C380.386 520.819 380.671 520.912 381.026 520.912ZM392.497 518.485C392.497 519.634 392.239 520.548 391.724 521.227C391.214 521.906 390.51 522.245 389.612 522.245C388.746 522.245 388.072 521.933 387.589 521.309L387.507 522.109H386.003V511.609H387.664V515.423C388.142 514.858 388.787 514.575 389.598 514.575C390.501 514.575 391.209 514.91 391.724 515.58C392.239 516.25 392.497 517.187 392.497 518.39V518.485ZM390.836 518.342C390.836 517.54 390.694 516.938 390.412 516.537C390.129 516.136 389.719 515.936 389.181 515.936C388.461 515.936 387.956 516.25 387.664 516.879V519.928C387.96 520.57 388.471 520.892 389.195 520.892C389.715 520.892 390.116 520.698 390.398 520.311C390.681 519.923 390.827 519.338 390.836 518.554V518.342ZM397.152 522.245C396.099 522.245 395.245 521.915 394.589 521.254C393.937 520.589 393.611 519.705 393.611 518.602V518.397C393.611 517.658 393.752 517 394.035 516.421C394.322 515.838 394.723 515.384 395.238 515.061C395.753 514.737 396.327 514.575 396.961 514.575C397.968 514.575 398.745 514.897 399.292 515.539C399.843 516.182 400.119 517.091 400.119 518.267V518.937H395.286C395.336 519.547 395.539 520.03 395.894 520.386C396.254 520.741 396.706 520.919 397.248 520.919C398.009 520.919 398.629 520.611 399.107 519.996L400.003 520.851C399.707 521.293 399.31 521.637 398.813 521.883C398.321 522.124 397.767 522.245 397.152 522.245ZM396.954 515.908C396.498 515.908 396.129 516.068 395.846 516.387C395.568 516.706 395.391 517.15 395.313 517.72H398.478V517.597C398.442 517.041 398.294 516.622 398.034 516.339C397.774 516.052 397.414 515.908 396.954 515.908ZM403.181 522.109H401.52V511.609H403.181V522.109Z" fill="black"/>
<path d="M329.812 252.223C329.812 251.785 329.657 251.448 329.347 251.211C329.041 250.974 328.488 250.735 327.686 250.493C326.884 250.252 326.246 249.983 325.772 249.686C324.865 249.117 324.411 248.374 324.411 247.458C324.411 246.656 324.737 245.995 325.389 245.475C326.045 244.956 326.895 244.696 327.939 244.696C328.631 244.696 329.249 244.824 329.791 245.079C330.333 245.334 330.76 245.699 331.069 246.173C331.379 246.642 331.534 247.164 331.534 247.738H329.812C329.812 247.219 329.648 246.813 329.319 246.521C328.996 246.225 328.531 246.077 327.925 246.077C327.36 246.077 326.92 246.198 326.606 246.439C326.296 246.681 326.141 247.018 326.141 247.451C326.141 247.816 326.309 248.121 326.647 248.367C326.984 248.609 327.54 248.846 328.315 249.078C329.089 249.306 329.711 249.568 330.181 249.864C330.65 250.156 330.994 250.493 331.213 250.876C331.432 251.254 331.541 251.698 331.541 252.209C331.541 253.038 331.222 253.699 330.584 254.191C329.951 254.679 329.089 254.923 328 254.923C327.28 254.923 326.617 254.791 326.011 254.526C325.409 254.257 324.94 253.888 324.603 253.419C324.27 252.949 324.104 252.403 324.104 251.778H325.833C325.833 252.343 326.02 252.781 326.394 253.091C326.767 253.401 327.303 253.556 328 253.556C328.602 253.556 329.053 253.435 329.354 253.193C329.659 252.947 329.812 252.624 329.812 252.223ZM332.587 251.019C332.587 250.295 332.731 249.643 333.018 249.064C333.305 248.481 333.708 248.034 334.228 247.724C334.747 247.41 335.344 247.253 336.019 247.253C337.017 247.253 337.826 247.574 338.445 248.217C339.07 248.859 339.407 249.711 339.457 250.773L339.464 251.163C339.464 251.892 339.323 252.544 339.04 253.118C338.762 253.692 338.361 254.137 337.837 254.451C337.317 254.766 336.716 254.923 336.032 254.923C334.989 254.923 334.152 254.576 333.524 253.884C332.899 253.186 332.587 252.259 332.587 251.101V251.019ZM334.248 251.163C334.248 251.924 334.405 252.521 334.72 252.954C335.034 253.382 335.472 253.597 336.032 253.597C336.593 253.597 337.028 253.378 337.338 252.94C337.652 252.503 337.81 251.863 337.81 251.019C337.81 250.272 337.648 249.68 337.324 249.242C337.005 248.805 336.57 248.586 336.019 248.586C335.476 248.586 335.046 248.802 334.727 249.235C334.408 249.664 334.248 250.306 334.248 251.163ZM343.907 253.597C344.322 253.597 344.666 253.476 344.94 253.234C345.213 252.993 345.359 252.694 345.377 252.339H346.942C346.924 252.799 346.781 253.23 346.512 253.631C346.243 254.027 345.878 254.342 345.418 254.574C344.958 254.807 344.461 254.923 343.928 254.923C342.893 254.923 342.073 254.588 341.467 253.918C340.861 253.248 340.558 252.323 340.558 251.142V250.972C340.558 249.846 340.858 248.946 341.46 248.271C342.062 247.592 342.882 247.253 343.921 247.253C344.801 247.253 345.516 247.51 346.067 248.025C346.623 248.536 346.915 249.208 346.942 250.042H345.377C345.359 249.618 345.213 249.269 344.94 248.996C344.671 248.723 344.327 248.586 343.907 248.586C343.37 248.586 342.955 248.782 342.663 249.174C342.371 249.561 342.223 250.151 342.219 250.944V251.211C342.219 252.013 342.362 252.612 342.649 253.009C342.941 253.401 343.36 253.597 343.907 253.597ZM349.964 254.786H348.303V247.39H349.964V254.786ZM348.2 245.469C348.2 245.213 348.28 245.002 348.44 244.833C348.604 244.664 348.836 244.58 349.137 244.58C349.438 244.58 349.67 244.664 349.834 244.833C349.998 245.002 350.08 245.213 350.08 245.469C350.08 245.719 349.998 245.929 349.834 246.098C349.67 246.262 349.438 246.344 349.137 246.344C348.836 246.344 348.604 246.262 348.44 246.098C348.28 245.929 348.2 245.719 348.2 245.469ZM356.198 254.786C356.125 254.645 356.062 254.415 356.007 254.096C355.478 254.647 354.831 254.923 354.065 254.923C353.323 254.923 352.717 254.711 352.247 254.287C351.778 253.863 351.543 253.339 351.543 252.715C351.543 251.926 351.835 251.322 352.418 250.903C353.006 250.479 353.844 250.267 354.934 250.267H355.952V249.782C355.952 249.399 355.845 249.094 355.631 248.866C355.417 248.634 355.091 248.517 354.653 248.517C354.275 248.517 353.965 248.613 353.724 248.805C353.482 248.991 353.361 249.231 353.361 249.522H351.7C351.7 249.117 351.835 248.738 352.104 248.388C352.372 248.032 352.737 247.754 353.197 247.554C353.662 247.353 354.179 247.253 354.749 247.253C355.615 247.253 356.305 247.472 356.82 247.909C357.335 248.342 357.6 248.953 357.613 249.741V253.077C357.613 253.742 357.707 254.273 357.894 254.67V254.786H356.198ZM354.373 253.59C354.701 253.59 355.009 253.51 355.296 253.35C355.588 253.191 355.806 252.977 355.952 252.708V251.313H355.057C354.441 251.313 353.979 251.42 353.669 251.635C353.359 251.849 353.204 252.152 353.204 252.544C353.204 252.863 353.309 253.118 353.519 253.309C353.733 253.496 354.018 253.59 354.373 253.59ZM361.12 254.786H359.459V244.286H361.12V254.786ZM374.177 251.546C374.077 252.608 373.685 253.437 373.001 254.034C372.317 254.627 371.408 254.923 370.274 254.923C369.481 254.923 368.781 254.736 368.175 254.362C367.573 253.984 367.108 253.448 366.78 252.756C366.452 252.063 366.281 251.259 366.268 250.343V249.413C366.268 248.474 366.434 247.647 366.767 246.932C367.099 246.216 367.576 245.665 368.195 245.277C368.82 244.89 369.54 244.696 370.356 244.696C371.454 244.696 372.338 244.995 373.008 245.592C373.678 246.189 374.067 247.032 374.177 248.121H372.454C372.372 247.405 372.163 246.891 371.825 246.576C371.493 246.257 371.003 246.098 370.356 246.098C369.604 246.098 369.025 246.373 368.619 246.925C368.218 247.472 368.013 248.276 368.004 249.338V250.22C368.004 251.295 368.195 252.115 368.578 252.681C368.966 253.246 369.531 253.528 370.274 253.528C370.953 253.528 371.463 253.376 371.805 253.07C372.147 252.765 372.363 252.257 372.454 251.546H374.177ZM375.257 251.019C375.257 250.295 375.4 249.643 375.688 249.064C375.975 248.481 376.378 248.034 376.898 247.724C377.417 247.41 378.014 247.253 378.689 247.253C379.687 247.253 380.496 247.574 381.115 248.217C381.74 248.859 382.077 249.711 382.127 250.773L382.134 251.163C382.134 251.892 381.993 252.544 381.71 253.118C381.432 253.692 381.031 254.137 380.507 254.451C379.987 254.766 379.386 254.923 378.702 254.923C377.659 254.923 376.822 254.576 376.193 253.884C375.569 253.186 375.257 252.259 375.257 251.101V251.019ZM376.918 251.163C376.918 251.924 377.075 252.521 377.39 252.954C377.704 253.382 378.142 253.597 378.702 253.597C379.263 253.597 379.698 253.378 380.008 252.94C380.322 252.503 380.48 251.863 380.48 251.019C380.48 250.272 380.318 249.68 379.994 249.242C379.675 248.805 379.24 248.586 378.689 248.586C378.146 248.586 377.716 248.802 377.397 249.235C377.078 249.664 376.918 250.306 376.918 251.163ZM385.08 247.39L385.128 248.244C385.675 247.583 386.393 247.253 387.281 247.253C388.822 247.253 389.606 248.135 389.633 249.898V254.786H387.972V249.994C387.972 249.525 387.869 249.178 387.664 248.955C387.464 248.727 387.133 248.613 386.673 248.613C386.003 248.613 385.504 248.916 385.176 249.522V254.786H383.515V247.39H385.08ZM393.413 245.592V247.39H394.719V248.62H393.413V252.749C393.413 253.031 393.468 253.237 393.577 253.364C393.691 253.487 393.892 253.549 394.179 253.549C394.37 253.549 394.564 253.526 394.76 253.48V254.766C394.382 254.87 394.017 254.923 393.666 254.923C392.39 254.923 391.752 254.219 391.752 252.81V248.62H390.535V247.39H391.752V245.592H393.413ZM399.866 248.907C399.648 248.871 399.422 248.852 399.19 248.852C398.428 248.852 397.916 249.144 397.651 249.727V254.786H395.99V247.39H397.576L397.617 248.217C398.018 247.574 398.574 247.253 399.285 247.253C399.522 247.253 399.718 247.285 399.873 247.349L399.866 248.907ZM402.683 254.786H401.022V247.39H402.683V254.786ZM400.919 245.469C400.919 245.213 400.999 245.002 401.158 244.833C401.322 244.664 401.555 244.58 401.856 244.58C402.156 244.58 402.389 244.664 402.553 244.833C402.717 245.002 402.799 245.213 402.799 245.469C402.799 245.719 402.717 245.929 402.553 246.098C402.389 246.262 402.156 246.344 401.856 246.344C401.555 246.344 401.322 246.262 401.158 246.098C400.999 245.929 400.919 245.719 400.919 245.469ZM410.988 251.163C410.988 252.311 410.731 253.225 410.216 253.904C409.705 254.583 409.001 254.923 408.104 254.923C407.238 254.923 406.563 254.611 406.08 253.986L405.998 254.786H404.494V244.286H406.155V248.1C406.634 247.535 407.279 247.253 408.09 247.253C408.992 247.253 409.701 247.588 410.216 248.258C410.731 248.928 410.988 249.864 410.988 251.067V251.163ZM409.327 251.019C409.327 250.217 409.186 249.616 408.903 249.215C408.621 248.814 408.211 248.613 407.673 248.613C406.953 248.613 406.447 248.928 406.155 249.557V252.605C406.452 253.248 406.962 253.569 407.687 253.569C408.206 253.569 408.607 253.376 408.89 252.988C409.172 252.601 409.318 252.015 409.327 251.231V251.019ZM416.867 254.061C416.38 254.636 415.687 254.923 414.789 254.923C413.987 254.923 413.379 254.688 412.964 254.219C412.554 253.749 412.349 253.07 412.349 252.182V247.39H414.01V252.161C414.01 253.1 414.399 253.569 415.179 253.569C415.985 253.569 416.53 253.28 416.813 252.701V247.39H418.474V254.786H416.908L416.867 254.061ZM422.247 245.592V247.39H423.553V248.62H422.247V252.749C422.247 253.031 422.302 253.237 422.411 253.364C422.525 253.487 422.726 253.549 423.013 253.549C423.204 253.549 423.398 253.526 423.594 253.48V254.766C423.216 254.87 422.851 254.923 422.5 254.923C421.224 254.923 420.586 254.219 420.586 252.81V248.62H419.369V247.39H420.586V245.592H422.247ZM426.595 254.786H424.934V247.39H426.595V254.786ZM424.831 245.469C424.831 245.213 424.911 245.002 425.07 244.833C425.234 244.664 425.467 244.58 425.768 244.58C426.068 244.58 426.301 244.664 426.465 244.833C426.629 245.002 426.711 245.213 426.711 245.469C426.711 245.719 426.629 245.929 426.465 246.098C426.301 246.262 426.068 246.344 425.768 246.344C425.467 246.344 425.234 246.262 425.07 246.098C424.911 245.929 424.831 245.719 424.831 245.469ZM428.099 251.019C428.099 250.295 428.242 249.643 428.529 249.064C428.816 248.481 429.22 248.034 429.739 247.724C430.259 247.41 430.856 247.253 431.53 247.253C432.528 247.253 433.337 247.574 433.957 248.217C434.581 248.859 434.919 249.711 434.969 250.773L434.976 251.163C434.976 251.892 434.834 252.544 434.552 253.118C434.274 253.692 433.873 254.137 433.349 254.451C432.829 254.766 432.228 254.923 431.544 254.923C430.5 254.923 429.664 254.576 429.035 253.884C428.411 253.186 428.099 252.259 428.099 251.101V251.019ZM429.76 251.163C429.76 251.924 429.917 252.521 430.232 252.954C430.546 253.382 430.983 253.597 431.544 253.597C432.105 253.597 432.54 253.378 432.85 252.94C433.164 252.503 433.321 251.863 433.321 251.019C433.321 250.272 433.16 249.68 432.836 249.242C432.517 248.805 432.082 248.586 431.53 248.586C430.988 248.586 430.557 248.802 430.238 249.235C429.919 249.664 429.76 250.306 429.76 251.163ZM437.922 247.39L437.97 248.244C438.517 247.583 439.234 247.253 440.123 247.253C441.663 247.253 442.447 248.135 442.475 249.898V254.786H440.814V249.994C440.814 249.525 440.711 249.178 440.506 248.955C440.305 248.727 439.975 248.613 439.515 248.613C438.845 248.613 438.346 248.916 438.018 249.522V254.786H436.357V247.39H437.922ZM448.319 252.776C448.319 252.48 448.196 252.254 447.95 252.099C447.709 251.945 447.305 251.808 446.74 251.689C446.175 251.571 445.704 251.42 445.325 251.238C444.496 250.837 444.081 250.256 444.081 249.495C444.081 248.857 444.35 248.324 444.888 247.895C445.426 247.467 446.109 247.253 446.939 247.253C447.823 247.253 448.536 247.472 449.078 247.909C449.625 248.347 449.898 248.914 449.898 249.611H448.237C448.237 249.292 448.119 249.028 447.882 248.818C447.645 248.604 447.33 248.497 446.939 248.497C446.574 248.497 446.275 248.581 446.043 248.75C445.815 248.918 445.701 249.144 445.701 249.427C445.701 249.682 445.808 249.88 446.023 250.021C446.237 250.163 446.67 250.306 447.321 250.452C447.973 250.593 448.483 250.764 448.853 250.965C449.226 251.161 449.502 251.398 449.68 251.676C449.862 251.954 449.953 252.291 449.953 252.687C449.953 253.353 449.677 253.893 449.126 254.307C448.575 254.718 447.852 254.923 446.959 254.923C446.353 254.923 445.813 254.813 445.339 254.595C444.865 254.376 444.496 254.075 444.232 253.692C443.967 253.309 443.835 252.897 443.835 252.455H445.448C445.471 252.847 445.619 253.15 445.893 253.364C446.166 253.574 446.528 253.679 446.98 253.679C447.417 253.679 447.75 253.597 447.978 253.432C448.205 253.264 448.319 253.045 448.319 252.776Z" fill="white"/>
<path d="M421.02 331.561L418.184 316.934L417 310.829L434.45 322.754L425.772 324.437L421.02 331.561Z" fill="#010101" stroke="white"/>
<rect x="24" y="40" width="108" height="24" rx="3" fill="black" fill-opacity="0.3"/>
<path d="M38.6514 54.4023H34.4814L33.5449 57H32.1914L35.9922 47.0469H37.1406L40.9482 57H39.6016L38.6514 54.4023ZM34.8779 53.3223H38.2617L36.5664 48.667L34.8779 53.3223ZM41.7822 53.2402C41.7822 52.1055 42.0511 51.194 42.5889 50.5059C43.1266 49.8132 43.8307 49.4668 44.7012 49.4668C45.5671 49.4668 46.2529 49.763 46.7588 50.3555V46.5H48.0234V57H46.8613L46.7998 56.207C46.2939 56.8268 45.5898 57.1367 44.6875 57.1367C43.8307 57.1367 43.1312 56.7858 42.5889 56.084C42.0511 55.3822 41.7822 54.4661 41.7822 53.3359V53.2402ZM43.0469 53.3838C43.0469 54.2223 43.2201 54.8786 43.5664 55.3525C43.9128 55.8265 44.3913 56.0635 45.002 56.0635C45.804 56.0635 46.3896 55.7035 46.7588 54.9834V51.5859C46.3805 50.8887 45.7995 50.54 45.0156 50.54C44.3958 50.54 43.9128 50.7793 43.5664 51.2578C43.2201 51.7363 43.0469 52.445 43.0469 53.3838ZM51.1816 49.6035L51.2158 50.4238C51.7581 49.7858 52.4896 49.4668 53.4102 49.4668C54.4447 49.4668 55.1488 49.8633 55.5225 50.6562C55.7686 50.3008 56.0876 50.0137 56.4795 49.7949C56.876 49.5762 57.3431 49.4668 57.8809 49.4668C59.5033 49.4668 60.3281 50.3258 60.3555 52.0439V57H59.0908V52.1191C59.0908 51.5905 58.9701 51.1963 58.7285 50.9365C58.487 50.6722 58.0814 50.54 57.5117 50.54C57.0423 50.54 56.6527 50.6813 56.3428 50.9639C56.0329 51.2419 55.8529 51.6178 55.8027 52.0918V57H54.5312V52.1533C54.5312 51.0778 54.0049 50.54 52.9521 50.54C52.1227 50.54 51.5553 50.8932 51.25 51.5996V57H49.9854V49.6035H51.1816ZM63.6436 57H62.3789V49.6035H63.6436V57ZM62.2764 47.6416C62.2764 47.4365 62.3379 47.2633 62.4609 47.1221C62.5885 46.9808 62.7754 46.9102 63.0215 46.9102C63.2676 46.9102 63.4544 46.9808 63.582 47.1221C63.7096 47.2633 63.7734 47.4365 63.7734 47.6416C63.7734 47.8467 63.7096 48.0176 63.582 48.1543C63.4544 48.291 63.2676 48.3594 63.0215 48.3594C62.7754 48.3594 62.5885 48.291 62.4609 48.1543C62.3379 48.0176 62.2764 47.8467 62.2764 47.6416ZM66.8701 49.6035L66.9111 50.5332C67.4762 49.8223 68.2145 49.4668 69.126 49.4668C70.6891 49.4668 71.4775 50.3486 71.4912 52.1123V57H70.2266V52.1055C70.222 51.5723 70.099 51.1781 69.8574 50.9229C69.6204 50.6676 69.249 50.54 68.7432 50.54C68.333 50.54 67.973 50.6494 67.6631 50.8682C67.3532 51.0869 67.1117 51.374 66.9385 51.7295V57H65.6738V49.6035H66.8701ZM74.7725 57H73.5078V49.6035H74.7725V57ZM73.4053 47.6416C73.4053 47.4365 73.4668 47.2633 73.5898 47.1221C73.7174 46.9808 73.9043 46.9102 74.1504 46.9102C74.3965 46.9102 74.5833 46.9808 74.7109 47.1221C74.8385 47.2633 74.9023 47.4365 74.9023 47.6416C74.9023 47.8467 74.8385 48.0176 74.7109 48.1543C74.5833 48.291 74.3965 48.3594 74.1504 48.3594C73.9043 48.3594 73.7174 48.291 73.5898 48.1543C73.4668 48.0176 73.4053 47.8467 73.4053 47.6416ZM81.1094 55.0381C81.1094 54.6963 80.9795 54.432 80.7197 54.2451C80.4645 54.0537 80.0156 53.8896 79.373 53.7529C78.735 53.6162 78.2269 53.4521 77.8486 53.2607C77.4749 53.0693 77.1969 52.8415 77.0146 52.5771C76.8369 52.3128 76.748 51.9984 76.748 51.6338C76.748 51.0277 77.0033 50.515 77.5137 50.0957C78.0286 49.6764 78.6849 49.4668 79.4824 49.4668C80.321 49.4668 81 49.6833 81.5195 50.1162C82.0436 50.5492 82.3057 51.1029 82.3057 51.7773H81.0342C81.0342 51.431 80.8861 51.1325 80.5898 50.8818C80.2982 50.6312 79.929 50.5059 79.4824 50.5059C79.0221 50.5059 78.6621 50.6061 78.4023 50.8066C78.1426 51.0072 78.0127 51.2692 78.0127 51.5928C78.0127 51.8981 78.1335 52.1283 78.375 52.2832C78.6165 52.4382 79.0518 52.5863 79.6807 52.7275C80.3141 52.8688 80.8268 53.0374 81.2188 53.2334C81.6107 53.4294 81.9001 53.6663 82.0869 53.9443C82.2783 54.2178 82.374 54.5527 82.374 54.9492C82.374 55.61 82.1097 56.141 81.5811 56.542C81.0524 56.9385 80.3665 57.1367 79.5234 57.1367C78.931 57.1367 78.4069 57.0319 77.9512 56.8223C77.4954 56.6126 77.1377 56.321 76.8779 55.9473C76.6227 55.569 76.4951 55.1611 76.4951 54.7236H77.7598C77.7826 55.1475 77.9512 55.4847 78.2656 55.7354C78.5846 55.9814 79.0039 56.1045 79.5234 56.1045C80.002 56.1045 80.3848 56.0088 80.6719 55.8174C80.9635 55.6214 81.1094 55.3617 81.1094 55.0381ZM85.7373 47.8125V49.6035H87.1182V50.5811H85.7373V55.168C85.7373 55.4642 85.7988 55.6875 85.9219 55.8379C86.0449 55.9837 86.2546 56.0566 86.5508 56.0566C86.6966 56.0566 86.8971 56.0293 87.1523 55.9746V57C86.8197 57.0911 86.4961 57.1367 86.1816 57.1367C85.6165 57.1367 85.1904 56.9658 84.9033 56.624C84.6162 56.2822 84.4727 55.7969 84.4727 55.168V50.5811H83.126V49.6035H84.4727V47.8125H85.7373ZM92.1768 50.7383C91.9854 50.7064 91.778 50.6904 91.5547 50.6904C90.7253 50.6904 90.1624 51.0436 89.8662 51.75V57H88.6016V49.6035H89.832L89.8525 50.458C90.2673 49.7972 90.8551 49.4668 91.6162 49.4668C91.8623 49.4668 92.0492 49.4987 92.1768 49.5625V50.7383ZM97.6387 57C97.5658 56.8542 97.5065 56.5944 97.4609 56.2207C96.873 56.8314 96.1712 57.1367 95.3555 57.1367C94.6263 57.1367 94.027 56.9316 93.5576 56.5215C93.0928 56.1068 92.8604 55.5827 92.8604 54.9492C92.8604 54.179 93.152 53.582 93.7354 53.1582C94.3232 52.7298 95.1481 52.5156 96.21 52.5156H97.4404V51.9346C97.4404 51.4925 97.3083 51.1416 97.0439 50.8818C96.7796 50.6175 96.39 50.4854 95.875 50.4854C95.4238 50.4854 95.0456 50.5993 94.7402 50.8271C94.4349 51.055 94.2822 51.3307 94.2822 51.6543H93.0107C93.0107 51.2852 93.1406 50.9297 93.4004 50.5879C93.6647 50.2415 94.0202 49.9681 94.4668 49.7676C94.918 49.5671 95.4124 49.4668 95.9502 49.4668C96.8024 49.4668 97.4701 49.681 97.9531 50.1094C98.4362 50.5332 98.6868 51.1188 98.7051 51.8662V55.2705C98.7051 55.9495 98.7917 56.4896 98.9648 56.8906V57H97.6387ZM95.54 56.0361C95.9365 56.0361 96.3125 55.9336 96.668 55.7285C97.0234 55.5234 97.2809 55.2568 97.4404 54.9287V53.4111H96.4492C94.8997 53.4111 94.125 53.8646 94.125 54.7715C94.125 55.168 94.2572 55.4779 94.5215 55.7012C94.7858 55.9245 95.1253 56.0361 95.54 56.0361ZM102.403 47.8125V49.6035H103.784V50.5811H102.403V55.168C102.403 55.4642 102.465 55.6875 102.588 55.8379C102.711 55.9837 102.921 56.0566 103.217 56.0566C103.363 56.0566 103.563 56.0293 103.818 55.9746V57C103.486 57.0911 103.162 57.1367 102.848 57.1367C102.283 57.1367 101.856 56.9658 101.569 56.624C101.282 56.2822 101.139 55.7969 101.139 55.168V50.5811H99.792V49.6035H101.139V47.8125H102.403ZM106.642 57H105.377V49.6035H106.642V57ZM105.274 47.6416C105.274 47.4365 105.336 47.2633 105.459 47.1221C105.587 46.9808 105.773 46.9102 106.02 46.9102C106.266 46.9102 106.452 46.9808 106.58 47.1221C106.708 47.2633 106.771 47.4365 106.771 47.6416C106.771 47.8467 106.708 48.0176 106.58 48.1543C106.452 48.291 106.266 48.3594 106.02 48.3594C105.773 48.3594 105.587 48.291 105.459 48.1543C105.336 48.0176 105.274 47.8467 105.274 47.6416ZM108.337 53.2334C108.337 52.5088 108.478 51.8571 108.761 51.2783C109.048 50.6995 109.444 50.2529 109.95 49.9385C110.461 49.624 111.042 49.4668 111.693 49.4668C112.701 49.4668 113.514 49.8154 114.134 50.5127C114.758 51.21 115.07 52.1374 115.07 53.2949V53.3838C115.07 54.1038 114.931 54.751 114.653 55.3252C114.38 55.8949 113.986 56.3392 113.471 56.6582C112.96 56.9772 112.372 57.1367 111.707 57.1367C110.704 57.1367 109.891 56.7881 109.267 56.0908C108.647 55.3936 108.337 54.4707 108.337 53.3223V53.2334ZM109.608 53.3838C109.608 54.2041 109.798 54.8626 110.176 55.3594C110.559 55.8561 111.069 56.1045 111.707 56.1045C112.35 56.1045 112.86 55.8538 113.238 55.3525C113.617 54.8467 113.806 54.1403 113.806 53.2334C113.806 52.4222 113.612 51.766 113.225 51.2646C112.842 50.7588 112.331 50.5059 111.693 50.5059C111.069 50.5059 110.565 50.7542 110.183 51.251C109.8 51.7477 109.608 52.4587 109.608 53.3838ZM117.853 49.6035L117.894 50.5332C118.459 49.8223 119.197 49.4668 120.108 49.4668C121.672 49.4668 122.46 50.3486 122.474 52.1123V57H121.209V52.1055C121.204 51.5723 121.081 51.1781 120.84 50.9229C120.603 50.6676 120.231 50.54 119.726 50.54C119.315 50.54 118.955 50.6494 118.646 50.8682C118.336 51.0869 118.094 51.374 117.921 51.7295V57H116.656V49.6035H117.853Z" fill="black"/>
<rect y="44" width="16" height="16" rx="2" fill="#00796B"/>
<rect x="24" y="71" width="45" height="24" rx="3" fill="black" fill-opacity="0.05"/>
<rect x="24" y="102" width="98" height="24" rx="3" fill="black" fill-opacity="0.05"/>
<rect x="24" y="132" width="102" height="24" rx="3" fill="black" fill-opacity="0.05"/>
<path d="M40.4766 84.8418C40.3535 85.8945 39.9639 86.708 39.3076 87.2822C38.6559 87.8519 37.7878 88.1367 36.7031 88.1367C35.5273 88.1367 34.584 87.7152 33.873 86.8721C33.1667 86.029 32.8135 84.901 32.8135 83.4883V82.5312C32.8135 81.6061 32.9775 80.7926 33.3057 80.0908C33.6383 79.389 34.1077 78.8512 34.7139 78.4775C35.32 78.0993 36.0218 77.9102 36.8193 77.9102C37.8766 77.9102 38.7243 78.2064 39.3623 78.7988C40.0003 79.3867 40.3717 80.2025 40.4766 81.2461H39.1572C39.0433 80.4531 38.7949 79.8789 38.4121 79.5234C38.0339 79.168 37.5029 78.9902 36.8193 78.9902C35.9808 78.9902 35.3223 79.3001 34.8438 79.9199C34.3698 80.5397 34.1328 81.4215 34.1328 82.5654V83.5293C34.1328 84.6094 34.3584 85.4684 34.8096 86.1064C35.2607 86.7445 35.8919 87.0635 36.7031 87.0635C37.4323 87.0635 37.9906 86.8994 38.3779 86.5713C38.7699 86.2386 39.0296 85.6621 39.1572 84.8418H40.4766ZM46.6426 88C46.5697 87.8542 46.5104 87.5944 46.4648 87.2207C45.877 87.8314 45.1751 88.1367 44.3594 88.1367C43.6302 88.1367 43.0309 87.9316 42.5615 87.5215C42.0967 87.1068 41.8643 86.5827 41.8643 85.9492C41.8643 85.179 42.1559 84.582 42.7393 84.1582C43.3271 83.7298 44.152 83.5156 45.2139 83.5156H46.4443V82.9346C46.4443 82.4925 46.3122 82.1416 46.0479 81.8818C45.7835 81.6175 45.3939 81.4854 44.8789 81.4854C44.4277 81.4854 44.0495 81.5993 43.7441 81.8271C43.4388 82.055 43.2861 82.3307 43.2861 82.6543H42.0146C42.0146 82.2852 42.1445 81.9297 42.4043 81.5879C42.6686 81.2415 43.0241 80.9681 43.4707 80.7676C43.9219 80.5671 44.4163 80.4668 44.9541 80.4668C45.8063 80.4668 46.474 80.681 46.957 81.1094C47.4401 81.5332 47.6908 82.1188 47.709 82.8662V86.2705C47.709 86.9495 47.7956 87.4896 47.9688 87.8906V88H46.6426ZM44.5439 87.0361C44.9404 87.0361 45.3164 86.9336 45.6719 86.7285C46.0273 86.5234 46.2848 86.2568 46.4443 85.9287V84.4111H45.4531C43.9036 84.4111 43.1289 84.8646 43.1289 85.7715C43.1289 86.168 43.2611 86.4779 43.5254 86.7012C43.7897 86.9245 44.1292 87.0361 44.5439 87.0361ZM53.2666 81.7383C53.0752 81.7064 52.8678 81.6904 52.6445 81.6904C51.8151 81.6904 51.2523 82.0436 50.9561 82.75V88H49.6914V80.6035H50.9219L50.9424 81.458C51.3571 80.7972 51.945 80.4668 52.7061 80.4668C52.9521 80.4668 53.139 80.4987 53.2666 80.5625V81.7383ZM57.3682 88.1367C56.3656 88.1367 55.5498 87.8086 54.9209 87.1523C54.292 86.4915 53.9775 85.6097 53.9775 84.5068V84.2744C53.9775 83.5407 54.1165 82.8867 54.3945 82.3125C54.6771 81.7337 55.069 81.2826 55.5703 80.959C56.0762 80.6309 56.623 80.4668 57.2109 80.4668C58.1725 80.4668 58.9199 80.7835 59.4531 81.417C59.9863 82.0505 60.2529 82.9574 60.2529 84.1377V84.6641H55.2422C55.2604 85.3932 55.4723 85.9834 55.8779 86.4346C56.2881 86.8812 56.8076 87.1045 57.4365 87.1045C57.8831 87.1045 58.2614 87.0133 58.5713 86.8311C58.8812 86.6488 59.1523 86.4072 59.3848 86.1064L60.1572 86.708C59.5374 87.6605 58.6077 88.1367 57.3682 88.1367ZM57.2109 81.5059C56.7005 81.5059 56.2721 81.6927 55.9258 82.0664C55.5794 82.4355 55.3652 82.9551 55.2832 83.625H58.9883V83.5293C58.9518 82.8867 58.7786 82.39 58.4688 82.0391C58.1589 81.6836 57.7396 81.5059 57.2109 81.5059Z" fill="black"/>
<rect y="75" width="16" height="16" rx="3" fill="#C2185B"/>
<path d="M34.5635 119H33.251V109.047H34.5635V119ZM37.9678 111.604L38.0088 112.533C38.5739 111.822 39.3122 111.467 40.2236 111.467C41.7868 111.467 42.5752 112.349 42.5889 114.112V119H41.3242V114.105C41.3197 113.572 41.1966 113.178 40.9551 112.923C40.7181 112.668 40.3467 112.54 39.8408 112.54C39.4307 112.54 39.0706 112.649 38.7607 112.868C38.4508 113.087 38.2093 113.374 38.0361 113.729V119H36.7715V111.604H37.9678ZM47.4629 118.104C47.9141 118.104 48.3083 117.968 48.6455 117.694C48.9827 117.421 49.1696 117.079 49.2061 116.669H50.4023C50.3796 117.093 50.2337 117.496 49.9648 117.879C49.696 118.262 49.3359 118.567 48.8848 118.795C48.4382 119.023 47.9642 119.137 47.4629 119.137C46.4557 119.137 45.6536 118.802 45.0566 118.132C44.4642 117.457 44.168 116.537 44.168 115.37V115.158C44.168 114.438 44.3001 113.798 44.5645 113.237C44.8288 112.677 45.207 112.242 45.6992 111.932C46.196 111.622 46.7816 111.467 47.4561 111.467C48.2855 111.467 48.9736 111.715 49.5205 112.212C50.0719 112.709 50.3659 113.354 50.4023 114.146H49.2061C49.1696 113.668 48.9873 113.276 48.6592 112.971C48.3356 112.661 47.9346 112.506 47.4561 112.506C46.8135 112.506 46.3145 112.738 45.959 113.203C45.6081 113.663 45.4326 114.331 45.4326 115.206V115.445C45.4326 116.298 45.6081 116.954 45.959 117.414C46.3099 117.874 46.8112 118.104 47.4629 118.104ZM56.3906 119C56.3177 118.854 56.2585 118.594 56.2129 118.221C55.625 118.831 54.9232 119.137 54.1074 119.137C53.3783 119.137 52.779 118.932 52.3096 118.521C51.8447 118.107 51.6123 117.583 51.6123 116.949C51.6123 116.179 51.904 115.582 52.4873 115.158C53.0752 114.73 53.9001 114.516 54.9619 114.516H56.1924V113.935C56.1924 113.493 56.0602 113.142 55.7959 112.882C55.5316 112.618 55.1419 112.485 54.627 112.485C54.1758 112.485 53.7975 112.599 53.4922 112.827C53.1868 113.055 53.0342 113.331 53.0342 113.654H51.7627C51.7627 113.285 51.8926 112.93 52.1523 112.588C52.4167 112.242 52.7721 111.968 53.2188 111.768C53.6699 111.567 54.1644 111.467 54.7021 111.467C55.5544 111.467 56.222 111.681 56.7051 112.109C57.1882 112.533 57.4388 113.119 57.457 113.866V117.271C57.457 117.95 57.5436 118.49 57.7168 118.891V119H56.3906ZM54.292 118.036C54.6885 118.036 55.0645 117.934 55.4199 117.729C55.7754 117.523 56.0329 117.257 56.1924 116.929V115.411H55.2012C53.6517 115.411 52.877 115.865 52.877 116.771C52.877 117.168 53.0091 117.478 53.2734 117.701C53.5378 117.924 53.8773 118.036 54.292 118.036ZM63.0146 112.738C62.8232 112.706 62.6159 112.69 62.3926 112.69C61.5632 112.69 61.0003 113.044 60.7041 113.75V119H59.4395V111.604H60.6699L60.6904 112.458C61.1051 111.797 61.693 111.467 62.4541 111.467C62.7002 111.467 62.887 111.499 63.0146 111.562V112.738ZM67.0137 118.104C67.4648 118.104 67.859 117.968 68.1963 117.694C68.5335 117.421 68.7204 117.079 68.7568 116.669H69.9531C69.9303 117.093 69.7845 117.496 69.5156 117.879C69.2467 118.262 68.8867 118.567 68.4355 118.795C67.9889 119.023 67.515 119.137 67.0137 119.137C66.0065 119.137 65.2044 118.802 64.6074 118.132C64.015 117.457 63.7188 116.537 63.7188 115.37V115.158C63.7188 114.438 63.8509 113.798 64.1152 113.237C64.3796 112.677 64.7578 112.242 65.25 111.932C65.7467 111.622 66.3324 111.467 67.0068 111.467C67.8363 111.467 68.5244 111.715 69.0713 112.212C69.6227 112.709 69.9167 113.354 69.9531 114.146H68.7568C68.7204 113.668 68.5381 113.276 68.21 112.971C67.8864 112.661 67.4854 112.506 67.0068 112.506C66.3643 112.506 65.8652 112.738 65.5098 113.203C65.1589 113.663 64.9834 114.331 64.9834 115.206V115.445C64.9834 116.298 65.1589 116.954 65.5098 117.414C65.8607 117.874 66.362 118.104 67.0137 118.104ZM74.4443 119.137C73.4417 119.137 72.626 118.809 71.9971 118.152C71.3682 117.492 71.0537 116.61 71.0537 115.507V115.274C71.0537 114.541 71.1927 113.887 71.4707 113.312C71.7533 112.734 72.1452 112.283 72.6465 111.959C73.1523 111.631 73.6992 111.467 74.2871 111.467C75.2487 111.467 75.9961 111.784 76.5293 112.417C77.0625 113.05 77.3291 113.957 77.3291 115.138V115.664H72.3184C72.3366 116.393 72.5485 116.983 72.9541 117.435C73.3643 117.881 73.8838 118.104 74.5127 118.104C74.9593 118.104 75.3376 118.013 75.6475 117.831C75.9574 117.649 76.2285 117.407 76.4609 117.106L77.2334 117.708C76.6136 118.66 75.6839 119.137 74.4443 119.137ZM74.2871 112.506C73.7767 112.506 73.3483 112.693 73.002 113.066C72.6556 113.436 72.4414 113.955 72.3594 114.625H76.0645V114.529C76.028 113.887 75.8548 113.39 75.5449 113.039C75.235 112.684 74.8158 112.506 74.2871 112.506ZM82.374 112.738C82.1826 112.706 81.9753 112.69 81.752 112.69C80.9225 112.69 80.3597 113.044 80.0635 113.75V119H78.7988V111.604H80.0293L80.0498 112.458C80.4645 111.797 81.0524 111.467 81.8135 111.467C82.0596 111.467 82.2464 111.499 82.374 111.562V112.738ZM87.8359 119C87.763 118.854 87.7038 118.594 87.6582 118.221C87.0703 118.831 86.3685 119.137 85.5527 119.137C84.8236 119.137 84.2243 118.932 83.7549 118.521C83.29 118.107 83.0576 117.583 83.0576 116.949C83.0576 116.179 83.3493 115.582 83.9326 115.158C84.5205 114.73 85.3454 114.516 86.4072 114.516H87.6377V113.935C87.6377 113.493 87.5055 113.142 87.2412 112.882C86.9769 112.618 86.5872 112.485 86.0723 112.485C85.6211 112.485 85.2428 112.599 84.9375 112.827C84.6322 113.055 84.4795 113.331 84.4795 113.654H83.208C83.208 113.285 83.3379 112.93 83.5977 112.588C83.862 112.242 84.2174 111.968 84.6641 111.768C85.1152 111.567 85.6097 111.467 86.1475 111.467C86.9997 111.467 87.6673 111.681 88.1504 112.109C88.6335 112.533 88.8841 113.119 88.9023 113.866V117.271C88.9023 117.95 88.9889 118.49 89.1621 118.891V119H87.8359ZM85.7373 118.036C86.1338 118.036 86.5098 117.934 86.8652 117.729C87.2207 117.523 87.4782 117.257 87.6377 116.929V115.411H86.6465C85.097 115.411 84.3223 115.865 84.3223 116.771C84.3223 117.168 84.4544 117.478 84.7188 117.701C84.9831 117.924 85.3226 118.036 85.7373 118.036ZM92.6006 109.812V111.604H93.9814V112.581H92.6006V117.168C92.6006 117.464 92.6621 117.688 92.7852 117.838C92.9082 117.984 93.1178 118.057 93.4141 118.057C93.5599 118.057 93.7604 118.029 94.0156 117.975V119C93.6829 119.091 93.3594 119.137 93.0449 119.137C92.4798 119.137 92.0537 118.966 91.7666 118.624C91.4795 118.282 91.3359 117.797 91.3359 117.168V112.581H89.9893V111.604H91.3359V109.812H92.6006ZM96.8389 119H95.5742V111.604H96.8389V119ZM95.4717 109.642C95.4717 109.437 95.5332 109.263 95.6562 109.122C95.7839 108.981 95.9707 108.91 96.2168 108.91C96.4629 108.91 96.6497 108.981 96.7773 109.122C96.9049 109.263 96.9688 109.437 96.9688 109.642C96.9688 109.847 96.9049 110.018 96.7773 110.154C96.6497 110.291 96.4629 110.359 96.2168 110.359C95.9707 110.359 95.7839 110.291 95.6562 110.154C95.5332 110.018 95.4717 109.847 95.4717 109.642ZM98.5342 115.233C98.5342 114.509 98.6755 113.857 98.958 113.278C99.2451 112.7 99.6416 112.253 100.147 111.938C100.658 111.624 101.239 111.467 101.891 111.467C102.898 111.467 103.711 111.815 104.331 112.513C104.955 113.21 105.268 114.137 105.268 115.295V115.384C105.268 116.104 105.129 116.751 104.851 117.325C104.577 117.895 104.183 118.339 103.668 118.658C103.158 118.977 102.57 119.137 101.904 119.137C100.902 119.137 100.088 118.788 99.4639 118.091C98.8441 117.394 98.5342 116.471 98.5342 115.322V115.233ZM99.8057 115.384C99.8057 116.204 99.9948 116.863 100.373 117.359C100.756 117.856 101.266 118.104 101.904 118.104C102.547 118.104 103.057 117.854 103.436 117.353C103.814 116.847 104.003 116.14 104.003 115.233C104.003 114.422 103.809 113.766 103.422 113.265C103.039 112.759 102.529 112.506 101.891 112.506C101.266 112.506 100.763 112.754 100.38 113.251C99.9971 113.748 99.8057 114.459 99.8057 115.384ZM108.05 111.604L108.091 112.533C108.656 111.822 109.394 111.467 110.306 111.467C111.869 111.467 112.657 112.349 112.671 114.112V119H111.406V114.105C111.402 113.572 111.279 113.178 111.037 112.923C110.8 112.668 110.429 112.54 109.923 112.54C109.513 112.54 109.153 112.649 108.843 112.868C108.533 113.087 108.291 113.374 108.118 113.729V119H106.854V111.604H108.05Z" fill="black"/>
<rect y="106" width="16" height="16" rx="3" fill="#9C27B0"/>
<path d="M36.8057 143.974H34.4678V148H33.1484V138.047H36.4434C37.5645 138.047 38.4258 138.302 39.0273 138.812C39.6335 139.323 39.9365 140.066 39.9365 141.041C39.9365 141.661 39.7679 142.201 39.4307 142.661C39.098 143.121 38.6331 143.465 38.0361 143.693L40.374 147.918V148H38.9658L36.8057 143.974ZM34.4678 142.9H36.4844C37.1361 142.9 37.6533 142.732 38.0361 142.395C38.4235 142.057 38.6172 141.606 38.6172 141.041C38.6172 140.426 38.4326 139.954 38.0635 139.626C37.6989 139.298 37.1702 139.132 36.4775 139.127H34.4678V142.9ZM44.6533 148.137C43.6507 148.137 42.835 147.809 42.2061 147.152C41.5771 146.492 41.2627 145.61 41.2627 144.507V144.274C41.2627 143.541 41.4017 142.887 41.6797 142.312C41.9622 141.734 42.3542 141.283 42.8555 140.959C43.3613 140.631 43.9082 140.467 44.4961 140.467C45.4577 140.467 46.2051 140.784 46.7383 141.417C47.2715 142.05 47.5381 142.957 47.5381 144.138V144.664H42.5273C42.5456 145.393 42.7575 145.983 43.1631 146.435C43.5732 146.881 44.0928 147.104 44.7217 147.104C45.1683 147.104 45.5465 147.013 45.8564 146.831C46.1663 146.649 46.4375 146.407 46.6699 146.106L47.4424 146.708C46.8226 147.66 45.8929 148.137 44.6533 148.137ZM44.4961 141.506C43.9857 141.506 43.5573 141.693 43.2109 142.066C42.8646 142.436 42.6504 142.955 42.5684 143.625H46.2734V143.529C46.237 142.887 46.0638 142.39 45.7539 142.039C45.444 141.684 45.0247 141.506 44.4961 141.506ZM50.2725 141.499C50.833 140.811 51.5622 140.467 52.46 140.467C54.0231 140.467 54.8115 141.349 54.8252 143.112V148H53.5605V143.105C53.556 142.572 53.4329 142.178 53.1914 141.923C52.9544 141.668 52.583 141.54 52.0771 141.54C51.667 141.54 51.307 141.649 50.9971 141.868C50.6872 142.087 50.4456 142.374 50.2725 142.729V148H49.0078V137.5H50.2725V141.499ZM61.2852 148C61.2122 147.854 61.153 147.594 61.1074 147.221C60.5195 147.831 59.8177 148.137 59.002 148.137C58.2728 148.137 57.6735 147.932 57.2041 147.521C56.7393 147.107 56.5068 146.583 56.5068 145.949C56.5068 145.179 56.7985 144.582 57.3818 144.158C57.9697 143.73 58.7946 143.516 59.8564 143.516H61.0869V142.935C61.0869 142.493 60.9548 142.142 60.6904 141.882C60.4261 141.618 60.0365 141.485 59.5215 141.485C59.0703 141.485 58.6921 141.599 58.3867 141.827C58.0814 142.055 57.9287 142.331 57.9287 142.654H56.6572C56.6572 142.285 56.7871 141.93 57.0469 141.588C57.3112 141.242 57.6667 140.968 58.1133 140.768C58.5645 140.567 59.0589 140.467 59.5967 140.467C60.4489 140.467 61.1165 140.681 61.5996 141.109C62.0827 141.533 62.3333 142.119 62.3516 142.866V146.271C62.3516 146.95 62.4382 147.49 62.6113 147.891V148H61.2852ZM59.1865 147.036C59.583 147.036 59.959 146.934 60.3145 146.729C60.6699 146.523 60.9274 146.257 61.0869 145.929V144.411H60.0957C58.5462 144.411 57.7715 144.865 57.7715 145.771C57.7715 146.168 57.9036 146.478 58.168 146.701C58.4323 146.924 58.7718 147.036 59.1865 147.036ZM70.5957 144.384C70.5957 145.514 70.3359 146.423 69.8164 147.111C69.2969 147.795 68.5996 148.137 67.7246 148.137C66.7904 148.137 66.068 147.806 65.5576 147.146L65.4961 148H64.334V137.5H65.5986V141.417C66.109 140.784 66.8132 140.467 67.7109 140.467C68.6087 140.467 69.3128 140.806 69.8232 141.485C70.3382 142.164 70.5957 143.094 70.5957 144.274V144.384ZM69.3311 144.24C69.3311 143.379 69.1647 142.714 68.832 142.244C68.4993 141.775 68.0208 141.54 67.3965 141.54C66.5625 141.54 65.9632 141.927 65.5986 142.702V145.901C65.986 146.676 66.5898 147.063 67.4102 147.063C68.0163 147.063 68.488 146.829 68.8252 146.359C69.1624 145.89 69.3311 145.184 69.3311 144.24ZM73.5693 148H72.3047V140.604H73.5693V148ZM72.2021 138.642C72.2021 138.437 72.2637 138.263 72.3867 138.122C72.5143 137.981 72.7012 137.91 72.9473 137.91C73.1934 137.91 73.3802 137.981 73.5078 138.122C73.6354 138.263 73.6992 138.437 73.6992 138.642C73.6992 138.847 73.6354 139.018 73.5078 139.154C73.3802 139.291 73.1934 139.359 72.9473 139.359C72.7012 139.359 72.5143 139.291 72.3867 139.154C72.2637 139.018 72.2021 138.847 72.2021 138.642ZM76.9736 148H75.709V137.5H76.9736V148ZM80.3779 148H79.1133V140.604H80.3779V148ZM79.0107 138.642C79.0107 138.437 79.0723 138.263 79.1953 138.122C79.3229 137.981 79.5098 137.91 79.7559 137.91C80.002 137.91 80.1888 137.981 80.3164 138.122C80.444 138.263 80.5078 138.437 80.5078 138.642C80.5078 138.847 80.444 139.018 80.3164 139.154C80.1888 139.291 80.002 139.359 79.7559 139.359C79.5098 139.359 79.3229 139.291 79.1953 139.154C79.0723 139.018 79.0107 138.847 79.0107 138.642ZM84.124 138.812V140.604H85.5049V141.581H84.124V146.168C84.124 146.464 84.1855 146.688 84.3086 146.838C84.4316 146.984 84.6413 147.057 84.9375 147.057C85.0833 147.057 85.2839 147.029 85.5391 146.975V148C85.2064 148.091 84.8828 148.137 84.5684 148.137C84.0033 148.137 83.5771 147.966 83.29 147.624C83.0029 147.282 82.8594 146.797 82.8594 146.168V141.581H81.5127V140.604H82.8594V138.812H84.124ZM91.5547 148C91.4818 147.854 91.4225 147.594 91.377 147.221C90.7891 147.831 90.0872 148.137 89.2715 148.137C88.5423 148.137 87.943 147.932 87.4736 147.521C87.0088 147.107 86.7764 146.583 86.7764 145.949C86.7764 145.179 87.068 144.582 87.6514 144.158C88.2393 143.73 89.0641 143.516 90.126 143.516H91.3564V142.935C91.3564 142.493 91.2243 142.142 90.96 141.882C90.6956 141.618 90.306 141.485 89.791 141.485C89.3398 141.485 88.9616 141.599 88.6562 141.827C88.3509 142.055 88.1982 142.331 88.1982 142.654H86.9268C86.9268 142.285 87.0566 141.93 87.3164 141.588C87.5807 141.242 87.9362 140.968 88.3828 140.768C88.834 140.567 89.3285 140.467 89.8662 140.467C90.7184 140.467 91.3861 140.681 91.8691 141.109C92.3522 141.533 92.6029 142.119 92.6211 142.866V146.271C92.6211 146.95 92.7077 147.49 92.8809 147.891V148H91.5547ZM89.4561 147.036C89.8525 147.036 90.2285 146.934 90.584 146.729C90.9395 146.523 91.1969 146.257 91.3564 145.929V144.411H90.3652C88.8158 144.411 88.041 144.865 88.041 145.771C88.041 146.168 88.1732 146.478 88.4375 146.701C88.7018 146.924 89.0413 147.036 89.4561 147.036ZM96.3193 138.812V140.604H97.7002V141.581H96.3193V146.168C96.3193 146.464 96.3809 146.688 96.5039 146.838C96.627 146.984 96.8366 147.057 97.1328 147.057C97.2786 147.057 97.4792 147.029 97.7344 146.975V148C97.4017 148.091 97.0781 148.137 96.7637 148.137C96.1986 148.137 95.7725 147.966 95.4854 147.624C95.1982 147.282 95.0547 146.797 95.0547 146.168V141.581H93.708V140.604H95.0547V138.812H96.3193ZM100.558 148H99.293V140.604H100.558V148ZM99.1904 138.642C99.1904 138.437 99.252 138.263 99.375 138.122C99.5026 137.981 99.6895 137.91 99.9355 137.91C100.182 137.91 100.368 137.981 100.496 138.122C100.624 138.263 100.688 138.437 100.688 138.642C100.688 138.847 100.624 139.018 100.496 139.154C100.368 139.291 100.182 139.359 99.9355 139.359C99.6895 139.359 99.5026 139.291 99.375 139.154C99.252 139.018 99.1904 138.847 99.1904 138.642ZM102.253 144.233C102.253 143.509 102.394 142.857 102.677 142.278C102.964 141.7 103.36 141.253 103.866 140.938C104.377 140.624 104.958 140.467 105.609 140.467C106.617 140.467 107.43 140.815 108.05 141.513C108.674 142.21 108.986 143.137 108.986 144.295V144.384C108.986 145.104 108.847 145.751 108.569 146.325C108.296 146.895 107.902 147.339 107.387 147.658C106.876 147.977 106.288 148.137 105.623 148.137C104.62 148.137 103.807 147.788 103.183 147.091C102.563 146.394 102.253 145.471 102.253 144.322V144.233ZM103.524 144.384C103.524 145.204 103.714 145.863 104.092 146.359C104.475 146.856 104.985 147.104 105.623 147.104C106.266 147.104 106.776 146.854 107.154 146.353C107.533 145.847 107.722 145.14 107.722 144.233C107.722 143.422 107.528 142.766 107.141 142.265C106.758 141.759 106.247 141.506 105.609 141.506C104.985 141.506 104.481 141.754 104.099 142.251C103.716 142.748 103.524 143.459 103.524 144.384ZM111.769 140.604L111.81 141.533C112.375 140.822 113.113 140.467 114.024 140.467C115.588 140.467 116.376 141.349 116.39 143.112V148H115.125V143.105C115.12 142.572 114.997 142.178 114.756 141.923C114.519 141.668 114.147 141.54 113.642 141.54C113.231 141.54 112.871 141.649 112.562 141.868C112.252 142.087 112.01 142.374 111.837 142.729V148H110.572V140.604H111.769Z" fill="black"/>
<rect y="136" width="16" height="16" rx="3" fill="#FBC02D"/>
<rect y="4" width="92" height="24" rx="3" fill="#333333"/>
<path d="M10.8262 16.9941V20H9.06836V11.4688H12.3965C13.0371 11.4688 13.5996 11.5859 14.084 11.8203C14.5723 12.0547 14.9473 12.3887 15.209 12.8223C15.4707 13.252 15.6016 13.7422 15.6016 14.293C15.6016 15.1289 15.3145 15.7891 14.7402 16.2734C14.1699 16.7539 13.3789 16.9941 12.3672 16.9941H10.8262ZM10.8262 15.5703H12.3965C12.8613 15.5703 13.2148 15.4609 13.457 15.2422C13.7031 15.0234 13.8262 14.7109 13.8262 14.3047C13.8262 13.8867 13.7031 13.5488 13.457 13.291C13.2109 13.0332 12.8711 12.9004 12.4375 12.8926H10.8262V15.5703ZM19.9727 16.877H18.5723V20H16.8145V11.4688H19.9844C20.9922 11.4688 21.7695 11.6934 22.3164 12.1426C22.8633 12.5918 23.1367 13.2266 23.1367 14.0469C23.1367 14.6289 23.0098 15.1152 22.7559 15.5059C22.5059 15.8926 22.125 16.2012 21.6133 16.4316L23.459 19.918V20H21.5723L19.9727 16.877ZM18.5723 15.4531H19.9902C20.4316 15.4531 20.7734 15.3418 21.0156 15.1191C21.2578 14.8926 21.3789 14.582 21.3789 14.1875C21.3789 13.7852 21.2637 13.4688 21.0332 13.2383C20.8066 13.0078 20.457 12.8926 19.9844 12.8926H18.5723V15.4531ZM31.4863 15.9277C31.4863 16.7676 31.3379 17.5039 31.041 18.1367C30.7441 18.7695 30.3184 19.2578 29.7637 19.6016C29.2129 19.9453 28.5801 20.1172 27.8652 20.1172C27.1582 20.1172 26.5273 19.9473 25.9727 19.6074C25.418 19.2676 24.9883 18.7832 24.6836 18.1543C24.3789 17.5215 24.2246 16.7949 24.2207 15.9746V15.5527C24.2207 14.7129 24.3711 13.9746 24.6719 13.3379C24.9766 12.6973 25.4043 12.207 25.9551 11.8672C26.5098 11.5234 27.1426 11.3516 27.8535 11.3516C28.5645 11.3516 29.1953 11.5234 29.7461 11.8672C30.3008 12.207 30.7285 12.6973 31.0293 13.3379C31.334 13.9746 31.4863 14.7109 31.4863 15.5469V15.9277ZM29.7051 15.541C29.7051 14.6465 29.5449 13.9668 29.2246 13.502C28.9043 13.0371 28.4473 12.8047 27.8535 12.8047C27.2637 12.8047 26.8086 13.0352 26.4883 13.4961C26.168 13.9531 26.0059 14.625 26.002 15.5117V15.9277C26.002 16.7988 26.1621 17.4746 26.4824 17.9551C26.8027 18.4355 27.2637 18.6758 27.8652 18.6758C28.4551 18.6758 28.9082 18.4453 29.2246 17.9844C29.541 17.5195 29.7012 16.8438 29.7051 15.957V15.541ZM39.5137 18.9219C39.1973 19.3008 38.75 19.5957 38.1719 19.8066C37.5938 20.0137 36.9531 20.1172 36.25 20.1172C35.5117 20.1172 34.8633 19.957 34.3047 19.6367C33.75 19.3125 33.3203 18.8438 33.0156 18.2305C32.7148 17.6172 32.5605 16.8965 32.5527 16.0684V15.4883C32.5527 14.6367 32.6953 13.9004 32.9805 13.2793C33.2695 12.6543 33.6836 12.1777 34.2227 11.8496C34.7656 11.5176 35.4004 11.3516 36.127 11.3516C37.1387 11.3516 37.9297 11.5938 38.5 12.0781C39.0703 12.5586 39.4082 13.2598 39.5137 14.1816H37.8027C37.7246 13.6934 37.5508 13.3359 37.2812 13.1094C37.0156 12.8828 36.6484 12.7695 36.1797 12.7695C35.582 12.7695 35.127 12.9941 34.8145 13.4434C34.502 13.8926 34.3438 14.5605 34.3398 15.4473V15.9922C34.3398 16.8867 34.5098 17.5625 34.8496 18.0195C35.1895 18.4766 35.6875 18.7051 36.3438 18.7051C37.0039 18.7051 37.4746 18.5645 37.7559 18.2832V16.8125H36.1562V15.5176H39.5137V18.9219ZM44.1016 16.877H42.7012V20H40.9434V11.4688H44.1133C45.1211 11.4688 45.8984 11.6934 46.4453 12.1426C46.9922 12.5918 47.2656 13.2266 47.2656 14.0469C47.2656 14.6289 47.1387 15.1152 46.8848 15.5059C46.6348 15.8926 46.2539 16.2012 45.7422 16.4316L47.5879 19.918V20H45.7012L44.1016 16.877ZM42.7012 15.4531H44.1191C44.5605 15.4531 44.9023 15.3418 45.1445 15.1191C45.3867 14.8926 45.5078 14.582 45.5078 14.1875C45.5078 13.7852 45.3926 13.4688 45.1621 13.2383C44.9355 13.0078 44.5859 12.8926 44.1133 12.8926H42.7012V15.4531ZM53.4238 18.2422H50.3418L49.7559 20H47.8867L51.0625 11.4688H52.6914L55.8848 20H54.0156L53.4238 18.2422ZM50.8164 16.8184H52.9492L51.877 13.625L50.8164 16.8184ZM58.9785 11.4688L61.1699 17.6562L63.3496 11.4688H65.6582V20H63.8945V17.668L64.0703 13.6426L61.7676 20H60.5605L58.2637 13.6484L58.4395 17.668V20H56.6816V11.4688H58.9785ZM69.4902 11.4688L71.6816 17.6562L73.8613 11.4688H76.1699V20H74.4062V17.668L74.582 13.6426L72.2793 20H71.0723L68.7754 13.6484L68.9512 17.668V20H67.1934V11.4688H69.4902ZM82.8379 16.3027H79.4629V18.5879H83.4238V20H77.7051V11.4688H83.4121V12.8926H79.4629V14.9258H82.8379V16.3027Z" fill="white"/>
<rect x="305" y="4" width="174" height="24" rx="3" fill="#333333"/>
<path d="M318.74 16.3027H315.365V18.5879H319.326V20H313.607V11.4688H319.314V12.8926H315.365V14.9258H318.74V16.3027ZM327.055 17.1582C326.988 18.0762 326.648 18.7988 326.035 19.3262C325.426 19.8535 324.621 20.1172 323.621 20.1172C322.527 20.1172 321.666 19.75 321.037 19.0156C320.412 18.2773 320.1 17.2656 320.1 15.9805V15.459C320.1 14.6387 320.244 13.916 320.533 13.291C320.822 12.666 321.234 12.1875 321.77 11.8555C322.309 11.5195 322.934 11.3516 323.645 11.3516C324.629 11.3516 325.422 11.6152 326.023 12.1426C326.625 12.6699 326.973 13.4102 327.066 14.3633H325.309C325.266 13.8125 325.111 13.4141 324.846 13.168C324.584 12.918 324.184 12.793 323.645 12.793C323.059 12.793 322.619 13.0039 322.326 13.4258C322.037 13.8438 321.889 14.4941 321.881 15.377V16.0215C321.881 16.9434 322.02 17.6172 322.297 18.043C322.578 18.4688 323.02 18.6816 323.621 18.6816C324.164 18.6816 324.568 18.5586 324.834 18.3125C325.104 18.0625 325.258 17.6777 325.297 17.1582H327.055ZM335.217 15.9277C335.217 16.7676 335.068 17.5039 334.771 18.1367C334.475 18.7695 334.049 19.2578 333.494 19.6016C332.943 19.9453 332.311 20.1172 331.596 20.1172C330.889 20.1172 330.258 19.9473 329.703 19.6074C329.148 19.2676 328.719 18.7832 328.414 18.1543C328.109 17.5215 327.955 16.7949 327.951 15.9746V15.5527C327.951 14.7129 328.102 13.9746 328.402 13.3379C328.707 12.6973 329.135 12.207 329.686 11.8672C330.24 11.5234 330.873 11.3516 331.584 11.3516C332.295 11.3516 332.926 11.5234 333.477 11.8672C334.031 12.207 334.459 12.6973 334.76 13.3379C335.064 13.9746 335.217 14.7109 335.217 15.5469V15.9277ZM333.436 15.541C333.436 14.6465 333.275 13.9668 332.955 13.502C332.635 13.0371 332.178 12.8047 331.584 12.8047C330.994 12.8047 330.539 13.0352 330.219 13.4961C329.898 13.9531 329.736 14.625 329.732 15.5117V15.9277C329.732 16.7988 329.893 17.4746 330.213 17.9551C330.533 18.4355 330.994 18.6758 331.596 18.6758C332.186 18.6758 332.639 18.4453 332.955 17.9844C333.271 17.5195 333.432 16.8438 333.436 15.957V15.541ZM343.432 20H341.674L338.252 14.3867V20H336.494V11.4688H338.252L341.68 17.0938V11.4688H343.432V20ZM351.975 15.9277C351.975 16.7676 351.826 17.5039 351.529 18.1367C351.232 18.7695 350.807 19.2578 350.252 19.6016C349.701 19.9453 349.068 20.1172 348.354 20.1172C347.646 20.1172 347.016 19.9473 346.461 19.6074C345.906 19.2676 345.477 18.7832 345.172 18.1543C344.867 17.5215 344.713 16.7949 344.709 15.9746V15.5527C344.709 14.7129 344.859 13.9746 345.16 13.3379C345.465 12.6973 345.893 12.207 346.443 11.8672C346.998 11.5234 347.631 11.3516 348.342 11.3516C349.053 11.3516 349.684 11.5234 350.234 11.8672C350.789 12.207 351.217 12.6973 351.518 13.3379C351.822 13.9746 351.975 14.7109 351.975 15.5469V15.9277ZM350.193 15.541C350.193 14.6465 350.033 13.9668 349.713 13.502C349.393 13.0371 348.936 12.8047 348.342 12.8047C347.752 12.8047 347.297 13.0352 346.977 13.4961C346.656 13.9531 346.494 14.625 346.49 15.5117V15.9277C346.49 16.7988 346.65 17.4746 346.971 17.9551C347.291 18.4355 347.752 18.6758 348.354 18.6758C348.943 18.6758 349.396 18.4453 349.713 17.9844C350.029 17.5195 350.189 16.8438 350.193 15.957V15.541ZM355.549 11.4688L357.74 17.6562L359.92 11.4688H362.229V20H360.465V17.668L360.641 13.6426L358.338 20H357.131L354.834 13.6484L355.01 17.668V20H353.252V11.4688H355.549ZM365.633 20H363.875V11.4688H365.633V20ZM373.965 17.1582C373.898 18.0762 373.559 18.7988 372.945 19.3262C372.336 19.8535 371.531 20.1172 370.531 20.1172C369.438 20.1172 368.576 19.75 367.947 19.0156C367.322 18.2773 367.01 17.2656 367.01 15.9805V15.459C367.01 14.6387 367.154 13.916 367.443 13.291C367.732 12.666 368.145 12.1875 368.68 11.8555C369.219 11.5195 369.844 11.3516 370.555 11.3516C371.539 11.3516 372.332 11.6152 372.934 12.1426C373.535 12.6699 373.883 13.4102 373.977 14.3633H372.219C372.176 13.8125 372.021 13.4141 371.756 13.168C371.494 12.918 371.094 12.793 370.555 12.793C369.969 12.793 369.529 13.0039 369.236 13.4258C368.947 13.8438 368.799 14.4941 368.791 15.377V16.0215C368.791 16.9434 368.93 17.6172 369.207 18.043C369.488 18.4688 369.93 18.6816 370.531 18.6816C371.074 18.6816 371.479 18.5586 371.744 18.3125C372.014 18.0625 372.168 17.6777 372.207 17.1582H373.965ZM384.805 17.1582C384.738 18.0762 384.398 18.7988 383.785 19.3262C383.176 19.8535 382.371 20.1172 381.371 20.1172C380.277 20.1172 379.416 19.75 378.787 19.0156C378.162 18.2773 377.85 17.2656 377.85 15.9805V15.459C377.85 14.6387 377.994 13.916 378.283 13.291C378.572 12.666 378.984 12.1875 379.52 11.8555C380.059 11.5195 380.684 11.3516 381.395 11.3516C382.379 11.3516 383.172 11.6152 383.773 12.1426C384.375 12.6699 384.723 13.4102 384.816 14.3633H383.059C383.016 13.8125 382.861 13.4141 382.596 13.168C382.334 12.918 381.934 12.793 381.395 12.793C380.809 12.793 380.369 13.0039 380.076 13.4258C379.787 13.8438 379.639 14.4941 379.631 15.377V16.0215C379.631 16.9434 379.77 17.6172 380.047 18.043C380.328 18.4688 380.77 18.6816 381.371 18.6816C381.914 18.6816 382.318 18.5586 382.584 18.3125C382.854 18.0625 383.008 17.6777 383.047 17.1582H384.805ZM387.717 18.5879H391.449V20H385.959V11.4688H387.717V18.5879ZM397.396 18.2422H394.314L393.729 20H391.859L395.035 11.4688H396.664L399.857 20H397.988L397.396 18.2422ZM394.789 16.8184H396.922L395.85 13.625L394.789 16.8184ZM405.078 17.7617C405.078 17.4297 404.961 17.1758 404.727 17C404.492 16.8203 404.07 16.6328 403.461 16.4375C402.852 16.2383 402.369 16.043 402.014 15.8516C401.045 15.3281 400.561 14.623 400.561 13.7363C400.561 13.2754 400.689 12.8652 400.947 12.5059C401.209 12.1426 401.582 11.8594 402.066 11.6562C402.555 11.4531 403.102 11.3516 403.707 11.3516C404.316 11.3516 404.859 11.4629 405.336 11.6855C405.812 11.9043 406.182 12.2148 406.443 12.6172C406.709 13.0195 406.842 13.4766 406.842 13.9883H405.084C405.084 13.5977 404.961 13.2949 404.715 13.0801C404.469 12.8613 404.123 12.752 403.678 12.752C403.248 12.752 402.914 12.8438 402.676 13.0273C402.438 13.207 402.318 13.4453 402.318 13.7422C402.318 14.0195 402.457 14.252 402.734 14.4395C403.016 14.627 403.428 14.8027 403.971 14.9668C404.971 15.2676 405.699 15.6406 406.156 16.0859C406.613 16.5312 406.842 17.0859 406.842 17.75C406.842 18.4883 406.562 19.0684 406.004 19.4902C405.445 19.9082 404.693 20.1172 403.748 20.1172C403.092 20.1172 402.494 19.998 401.955 19.7598C401.416 19.5176 401.004 19.1875 400.719 18.7695C400.438 18.3516 400.297 17.8672 400.297 17.3164H402.061C402.061 18.2578 402.623 18.7285 403.748 18.7285C404.166 18.7285 404.492 18.6445 404.727 18.4766C404.961 18.3047 405.078 18.0664 405.078 17.7617ZM412.461 17.7617C412.461 17.4297 412.344 17.1758 412.109 17C411.875 16.8203 411.453 16.6328 410.844 16.4375C410.234 16.2383 409.752 16.043 409.396 15.8516C408.428 15.3281 407.943 14.623 407.943 13.7363C407.943 13.2754 408.072 12.8652 408.33 12.5059C408.592 12.1426 408.965 11.8594 409.449 11.6562C409.938 11.4531 410.484 11.3516 411.09 11.3516C411.699 11.3516 412.242 11.4629 412.719 11.6855C413.195 11.9043 413.564 12.2148 413.826 12.6172C414.092 13.0195 414.225 13.4766 414.225 13.9883H412.467C412.467 13.5977 412.344 13.2949 412.098 13.0801C411.852 12.8613 411.506 12.752 411.061 12.752C410.631 12.752 410.297 12.8438 410.059 13.0273C409.82 13.207 409.701 13.4453 409.701 13.7422C409.701 14.0195 409.84 14.252 410.117 14.4395C410.398 14.627 410.811 14.8027 411.354 14.9668C412.354 15.2676 413.082 15.6406 413.539 16.0859C413.996 16.5312 414.225 17.0859 414.225 17.75C414.225 18.4883 413.945 19.0684 413.387 19.4902C412.828 19.9082 412.076 20.1172 411.131 20.1172C410.475 20.1172 409.877 19.998 409.338 19.7598C408.799 19.5176 408.387 19.1875 408.102 18.7695C407.82 18.3516 407.68 17.8672 407.68 17.3164H409.443C409.443 18.2578 410.006 18.7285 411.131 18.7285C411.549 18.7285 411.875 18.6445 412.109 18.4766C412.344 18.3047 412.461 18.0664 412.461 17.7617ZM417.289 20H415.531V11.4688H417.289V20ZM424.057 16.5137H420.682V20H418.924V11.4688H424.479V12.8926H420.682V15.0957H424.057V16.5137ZM427.367 20H425.609V11.4688H427.367V20ZM435.699 17.1582C435.633 18.0762 435.293 18.7988 434.68 19.3262C434.07 19.8535 433.266 20.1172 432.266 20.1172C431.172 20.1172 430.311 19.75 429.682 19.0156C429.057 18.2773 428.744 17.2656 428.744 15.9805V15.459C428.744 14.6387 428.889 13.916 429.178 13.291C429.467 12.666 429.879 12.1875 430.414 11.8555C430.953 11.5195 431.578 11.3516 432.289 11.3516C433.273 11.3516 434.066 11.6152 434.668 12.1426C435.27 12.6699 435.617 13.4102 435.711 14.3633H433.953C433.91 13.8125 433.756 13.4141 433.49 13.168C433.229 12.918 432.828 12.793 432.289 12.793C431.703 12.793 431.264 13.0039 430.971 13.4258C430.682 13.8438 430.533 14.4941 430.525 15.377V16.0215C430.525 16.9434 430.664 17.6172 430.941 18.043C431.223 18.4688 431.664 18.6816 432.266 18.6816C432.809 18.6816 433.213 18.5586 433.479 18.3125C433.748 18.0625 433.902 17.6777 433.941 17.1582H435.699ZM441.67 18.2422H438.588L438.002 20H436.133L439.309 11.4688H440.938L444.131 20H442.262L441.67 18.2422ZM439.062 16.8184H441.195L440.123 13.625L439.062 16.8184ZM450.646 12.8926H448.033V20H446.275V12.8926H443.697V11.4688H450.646V12.8926ZM453.523 20H451.766V11.4688H453.523V20ZM462.166 15.9277C462.166 16.7676 462.018 17.5039 461.721 18.1367C461.424 18.7695 460.998 19.2578 460.443 19.6016C459.893 19.9453 459.26 20.1172 458.545 20.1172C457.838 20.1172 457.207 19.9473 456.652 19.6074C456.098 19.2676 455.668 18.7832 455.363 18.1543C455.059 17.5215 454.904 16.7949 454.9 15.9746V15.5527C454.9 14.7129 455.051 13.9746 455.352 13.3379C455.656 12.6973 456.084 12.207 456.635 11.8672C457.189 11.5234 457.822 11.3516 458.533 11.3516C459.244 11.3516 459.875 11.5234 460.426 11.8672C460.98 12.207 461.408 12.6973 461.709 13.3379C462.014 13.9746 462.166 14.7109 462.166 15.5469V15.9277ZM460.385 15.541C460.385 14.6465 460.225 13.9668 459.904 13.502C459.584 13.0371 459.127 12.8047 458.533 12.8047C457.943 12.8047 457.488 13.0352 457.168 13.4961C456.848 13.9531 456.686 14.625 456.682 15.5117V15.9277C456.682 16.7988 456.842 17.4746 457.162 17.9551C457.482 18.4355 457.943 18.6758 458.545 18.6758C459.135 18.6758 459.588 18.4453 459.904 17.9844C460.221 17.5195 460.381 16.8438 460.385 15.957V15.541ZM470.381 20H468.623L465.201 14.3867V20H463.443V11.4688H465.201L468.629 17.0938V11.4688H470.381V20Z" fill="white"/>
<path d="M309.088 44.5635C307.962 44.2399 307.142 43.8434 306.627 43.374C306.117 42.9001 305.861 42.3167 305.861 41.624C305.861 40.8402 306.174 40.193 306.798 39.6826C307.427 39.1676 308.243 38.9102 309.245 38.9102C309.929 38.9102 310.537 39.0423 311.07 39.3066C311.608 39.571 312.023 39.9355 312.314 40.4004C312.611 40.8652 312.759 41.3734 312.759 41.9248H311.439C311.439 41.3232 311.248 40.8516 310.865 40.5098C310.482 40.1634 309.942 39.9902 309.245 39.9902C308.598 39.9902 308.092 40.1338 307.728 40.4209C307.368 40.7035 307.188 41.0977 307.188 41.6035C307.188 42.0091 307.358 42.3532 307.7 42.6357C308.047 42.9137 308.632 43.1689 309.457 43.4014C310.286 43.6338 310.934 43.8913 311.398 44.1738C311.868 44.4518 312.214 44.7777 312.438 45.1514C312.665 45.5251 312.779 45.9648 312.779 46.4707C312.779 47.2773 312.465 47.9245 311.836 48.4121C311.207 48.8952 310.366 49.1367 309.313 49.1367C308.63 49.1367 307.992 49.0068 307.399 48.7471C306.807 48.4827 306.349 48.1227 306.025 47.667C305.706 47.2113 305.547 46.694 305.547 46.1152H306.866C306.866 46.7168 307.087 47.193 307.529 47.5439C307.976 47.8903 308.571 48.0635 309.313 48.0635C310.006 48.0635 310.537 47.9222 310.906 47.6396C311.275 47.3571 311.46 46.972 311.46 46.4844C311.46 45.9967 311.289 45.6208 310.947 45.3564C310.605 45.0876 309.986 44.8232 309.088 44.5635ZM313.935 45.2334C313.935 44.5088 314.076 43.8571 314.358 43.2783C314.646 42.6995 315.042 42.2529 315.548 41.9385C316.058 41.624 316.639 41.4668 317.291 41.4668C318.298 41.4668 319.112 41.8154 319.731 42.5127C320.356 43.21 320.668 44.1374 320.668 45.2949V45.3838C320.668 46.1038 320.529 46.751 320.251 47.3252C319.978 47.8949 319.583 48.3392 319.068 48.6582C318.558 48.9772 317.97 49.1367 317.305 49.1367C316.302 49.1367 315.489 48.7881 314.864 48.0908C314.244 47.3936 313.935 46.4707 313.935 45.3223V45.2334ZM315.206 45.3838C315.206 46.2041 315.395 46.8626 315.773 47.3594C316.156 47.8561 316.667 48.1045 317.305 48.1045C317.947 48.1045 318.458 47.8538 318.836 47.3525C319.214 46.8467 319.403 46.1403 319.403 45.2334C319.403 44.4222 319.21 43.766 318.822 43.2646C318.439 42.7588 317.929 42.5059 317.291 42.5059C316.667 42.5059 316.163 42.7542 315.78 43.251C315.397 43.7477 315.206 44.4587 315.206 45.3838ZM325.221 48.1045C325.672 48.1045 326.066 47.9678 326.403 47.6943C326.741 47.4209 326.927 47.0791 326.964 46.6689H328.16C328.137 47.0928 327.992 47.4961 327.723 47.8789C327.454 48.2617 327.094 48.5671 326.643 48.7949C326.196 49.0228 325.722 49.1367 325.221 49.1367C324.214 49.1367 323.411 48.8018 322.814 48.1318C322.222 47.4574 321.926 46.5368 321.926 45.3701V45.1582C321.926 44.4382 322.058 43.7979 322.322 43.2373C322.587 42.6768 322.965 42.2415 323.457 41.9316C323.954 41.6217 324.539 41.4668 325.214 41.4668C326.043 41.4668 326.731 41.7152 327.278 42.2119C327.83 42.7087 328.124 43.3535 328.16 44.1465H326.964C326.927 43.668 326.745 43.276 326.417 42.9707C326.093 42.6608 325.692 42.5059 325.214 42.5059C324.571 42.5059 324.072 42.7383 323.717 43.2031C323.366 43.6634 323.19 44.3311 323.19 45.2061V45.4453C323.19 46.2975 323.366 46.9538 323.717 47.4141C324.068 47.8743 324.569 48.1045 325.221 48.1045ZM330.956 49H329.691V41.6035H330.956V49ZM329.589 39.6416C329.589 39.4365 329.65 39.2633 329.773 39.1221C329.901 38.9808 330.088 38.9102 330.334 38.9102C330.58 38.9102 330.767 38.9808 330.895 39.1221C331.022 39.2633 331.086 39.4365 331.086 39.6416C331.086 39.8467 331.022 40.0176 330.895 40.1543C330.767 40.291 330.58 40.3594 330.334 40.3594C330.088 40.3594 329.901 40.291 329.773 40.1543C329.65 40.0176 329.589 39.8467 329.589 39.6416ZM337.553 49C337.48 48.8542 337.421 48.5944 337.375 48.2207C336.787 48.8314 336.085 49.1367 335.27 49.1367C334.54 49.1367 333.941 48.9316 333.472 48.5215C333.007 48.1068 332.774 47.5827 332.774 46.9492C332.774 46.179 333.066 45.582 333.649 45.1582C334.237 44.7298 335.062 44.5156 336.124 44.5156H337.354V43.9346C337.354 43.4925 337.222 43.1416 336.958 42.8818C336.694 42.6175 336.304 42.4854 335.789 42.4854C335.338 42.4854 334.96 42.5993 334.654 42.8271C334.349 43.055 334.196 43.3307 334.196 43.6543H332.925C332.925 43.2852 333.055 42.9297 333.314 42.5879C333.579 42.2415 333.934 41.9681 334.381 41.7676C334.832 41.5671 335.326 41.4668 335.864 41.4668C336.716 41.4668 337.384 41.681 337.867 42.1094C338.35 42.5332 338.601 43.1188 338.619 43.8662V47.2705C338.619 47.9495 338.706 48.4896 338.879 48.8906V49H337.553ZM335.454 48.0361C335.851 48.0361 336.227 47.9336 336.582 47.7285C336.938 47.5234 337.195 47.2568 337.354 46.9287V45.4111H336.363C334.814 45.4111 334.039 45.8646 334.039 46.7715C334.039 47.168 334.171 47.4779 334.436 47.7012C334.7 47.9245 335.039 48.0361 335.454 48.0361ZM341.976 49H340.711V38.5H341.976V49ZM354.998 45.8418C354.875 46.8945 354.485 47.708 353.829 48.2822C353.177 48.8519 352.309 49.1367 351.225 49.1367C350.049 49.1367 349.105 48.7152 348.395 47.8721C347.688 47.029 347.335 45.901 347.335 44.4883V43.5312C347.335 42.6061 347.499 41.7926 347.827 41.0908C348.16 40.389 348.629 39.8512 349.235 39.4775C349.841 39.0993 350.543 38.9102 351.341 38.9102C352.398 38.9102 353.246 39.2064 353.884 39.7988C354.522 40.3867 354.893 41.2025 354.998 42.2461H353.679C353.565 41.4531 353.316 40.8789 352.934 40.5234C352.555 40.168 352.024 39.9902 351.341 39.9902C350.502 39.9902 349.844 40.3001 349.365 40.9199C348.891 41.5397 348.654 42.4215 348.654 43.5654V44.5293C348.654 45.6094 348.88 46.4684 349.331 47.1064C349.782 47.7445 350.413 48.0635 351.225 48.0635C351.954 48.0635 352.512 47.8994 352.899 47.5713C353.291 47.2386 353.551 46.6621 353.679 45.8418H354.998ZM356.263 45.2334C356.263 44.5088 356.404 43.8571 356.687 43.2783C356.974 42.6995 357.37 42.2529 357.876 41.9385C358.386 41.624 358.967 41.4668 359.619 41.4668C360.626 41.4668 361.44 41.8154 362.06 42.5127C362.684 43.21 362.996 44.1374 362.996 45.2949V45.3838C362.996 46.1038 362.857 46.751 362.579 47.3252C362.306 47.8949 361.911 48.3392 361.396 48.6582C360.886 48.9772 360.298 49.1367 359.633 49.1367C358.63 49.1367 357.817 48.7881 357.192 48.0908C356.573 47.3936 356.263 46.4707 356.263 45.3223V45.2334ZM357.534 45.3838C357.534 46.2041 357.723 46.8626 358.102 47.3594C358.484 47.8561 358.995 48.1045 359.633 48.1045C360.275 48.1045 360.786 47.8538 361.164 47.3525C361.542 46.8467 361.731 46.1403 361.731 45.2334C361.731 44.4222 361.538 43.766 361.15 43.2646C360.768 42.7588 360.257 42.5059 359.619 42.5059C358.995 42.5059 358.491 42.7542 358.108 43.251C357.726 43.7477 357.534 44.4587 357.534 45.3838ZM365.778 41.6035L365.819 42.5332C366.384 41.8223 367.123 41.4668 368.034 41.4668C369.597 41.4668 370.386 42.3486 370.399 44.1123V49H369.135V44.1055C369.13 43.5723 369.007 43.1781 368.766 42.9229C368.529 42.6676 368.157 42.54 367.651 42.54C367.241 42.54 366.881 42.6494 366.571 42.8682C366.261 43.0869 366.02 43.374 365.847 43.7295V49H364.582V41.6035H365.778ZM374.022 39.8125V41.6035H375.403V42.5811H374.022V47.168C374.022 47.4642 374.084 47.6875 374.207 47.8379C374.33 47.9837 374.54 48.0566 374.836 48.0566C374.982 48.0566 375.182 48.0293 375.438 47.9746V49C375.105 49.0911 374.781 49.1367 374.467 49.1367C373.902 49.1367 373.476 48.9658 373.188 48.624C372.901 48.2822 372.758 47.7969 372.758 47.168V42.5811H371.411V41.6035H372.758V39.8125H374.022ZM380.462 42.7383C380.271 42.7064 380.063 42.6904 379.84 42.6904C379.01 42.6904 378.448 43.0436 378.151 43.75V49H376.887V41.6035H378.117L378.138 42.458C378.552 41.7972 379.14 41.4668 379.901 41.4668C380.147 41.4668 380.334 41.4987 380.462 41.5625V42.7383ZM383.005 49H381.74V41.6035H383.005V49ZM381.638 39.6416C381.638 39.4365 381.699 39.2633 381.822 39.1221C381.95 38.9808 382.137 38.9102 382.383 38.9102C382.629 38.9102 382.816 38.9808 382.943 39.1221C383.071 39.2633 383.135 39.4365 383.135 39.6416C383.135 39.8467 383.071 40.0176 382.943 40.1543C382.816 40.291 382.629 40.3594 382.383 40.3594C382.137 40.3594 381.95 40.291 381.822 40.1543C381.699 40.0176 381.638 39.8467 381.638 39.6416ZM391.297 45.3838C391.297 46.514 391.037 47.4232 390.518 48.1113C389.998 48.7949 389.301 49.1367 388.426 49.1367C387.492 49.1367 386.769 48.8063 386.259 48.1455L386.197 49H385.035V38.5H386.3V42.417C386.81 41.7835 387.514 41.4668 388.412 41.4668C389.31 41.4668 390.014 41.8063 390.524 42.4854C391.039 43.1644 391.297 44.0941 391.297 45.2744V45.3838ZM390.032 45.2402C390.032 44.3789 389.866 43.7135 389.533 43.2441C389.201 42.7747 388.722 42.54 388.098 42.54C387.264 42.54 386.664 42.9274 386.3 43.7021V46.9014C386.687 47.6761 387.291 48.0635 388.111 48.0635C388.717 48.0635 389.189 47.8288 389.526 47.3594C389.864 46.89 390.032 46.1836 390.032 45.2402ZM397.463 48.2686C396.971 48.8473 396.248 49.1367 395.296 49.1367C394.507 49.1367 393.906 48.9089 393.491 48.4531C393.081 47.9928 392.874 47.3138 392.869 46.416V41.6035H394.134V46.3818C394.134 47.5029 394.59 48.0635 395.501 48.0635C396.467 48.0635 397.11 47.7035 397.429 46.9834V41.6035H398.693V49H397.49L397.463 48.2686ZM402.337 39.8125V41.6035H403.718V42.5811H402.337V47.168C402.337 47.4642 402.398 47.6875 402.521 47.8379C402.645 47.9837 402.854 48.0566 403.15 48.0566C403.296 48.0566 403.497 48.0293 403.752 47.9746V49C403.419 49.0911 403.096 49.1367 402.781 49.1367C402.216 49.1367 401.79 48.9658 401.503 48.624C401.216 48.2822 401.072 47.7969 401.072 47.168V42.5811H399.726V41.6035H401.072V39.8125H402.337ZM406.575 49H405.311V41.6035H406.575V49ZM405.208 39.6416C405.208 39.4365 405.27 39.2633 405.393 39.1221C405.52 38.9808 405.707 38.9102 405.953 38.9102C406.199 38.9102 406.386 38.9808 406.514 39.1221C406.641 39.2633 406.705 39.4365 406.705 39.6416C406.705 39.8467 406.641 40.0176 406.514 40.1543C406.386 40.291 406.199 40.3594 405.953 40.3594C405.707 40.3594 405.52 40.291 405.393 40.1543C405.27 40.0176 405.208 39.8467 405.208 39.6416ZM408.271 45.2334C408.271 44.5088 408.412 43.8571 408.694 43.2783C408.981 42.6995 409.378 42.2529 409.884 41.9385C410.394 41.624 410.975 41.4668 411.627 41.4668C412.634 41.4668 413.448 41.8154 414.067 42.5127C414.692 43.21 415.004 44.1374 415.004 45.2949V45.3838C415.004 46.1038 414.865 46.751 414.587 47.3252C414.313 47.8949 413.919 48.3392 413.404 48.6582C412.894 48.9772 412.306 49.1367 411.641 49.1367C410.638 49.1367 409.825 48.7881 409.2 48.0908C408.58 47.3936 408.271 46.4707 408.271 45.3223V45.2334ZM409.542 45.3838C409.542 46.2041 409.731 46.8626 410.109 47.3594C410.492 47.8561 411.003 48.1045 411.641 48.1045C412.283 48.1045 412.794 47.8538 413.172 47.3525C413.55 46.8467 413.739 46.1403 413.739 45.2334C413.739 44.4222 413.546 43.766 413.158 43.2646C412.775 42.7588 412.265 42.5059 411.627 42.5059C411.003 42.5059 410.499 42.7542 410.116 43.251C409.733 43.7477 409.542 44.4587 409.542 45.3838ZM417.786 41.6035L417.827 42.5332C418.392 41.8223 419.131 41.4668 420.042 41.4668C421.605 41.4668 422.394 42.3486 422.407 44.1123V49H421.143V44.1055C421.138 43.5723 421.015 43.1781 420.773 42.9229C420.536 42.6676 420.165 42.54 419.659 42.54C419.249 42.54 418.889 42.6494 418.579 42.8682C418.269 43.0869 418.028 43.374 417.854 43.7295V49H416.59V41.6035H417.786ZM428.621 47.0381C428.621 46.6963 428.491 46.432 428.231 46.2451C427.976 46.0537 427.527 45.8896 426.885 45.7529C426.247 45.6162 425.739 45.4521 425.36 45.2607C424.987 45.0693 424.709 44.8415 424.526 44.5771C424.349 44.3128 424.26 43.9984 424.26 43.6338C424.26 43.0277 424.515 42.515 425.025 42.0957C425.54 41.6764 426.197 41.4668 426.994 41.4668C427.833 41.4668 428.512 41.6833 429.031 42.1162C429.555 42.5492 429.817 43.1029 429.817 43.7773H428.546C428.546 43.431 428.398 43.1325 428.102 42.8818C427.81 42.6312 427.441 42.5059 426.994 42.5059C426.534 42.5059 426.174 42.6061 425.914 42.8066C425.654 43.0072 425.524 43.2692 425.524 43.5928C425.524 43.8981 425.645 44.1283 425.887 44.2832C426.128 44.4382 426.563 44.5863 427.192 44.7275C427.826 44.8688 428.339 45.0374 428.73 45.2334C429.122 45.4294 429.412 45.6663 429.599 45.9443C429.79 46.2178 429.886 46.5527 429.886 46.9492C429.886 47.61 429.621 48.141 429.093 48.542C428.564 48.9385 427.878 49.1367 427.035 49.1367C426.443 49.1367 425.919 49.0319 425.463 48.8223C425.007 48.6126 424.649 48.321 424.39 47.9473C424.134 47.569 424.007 47.1611 424.007 46.7236H425.271C425.294 47.1475 425.463 47.4847 425.777 47.7354C426.096 47.9814 426.516 48.1045 427.035 48.1045C427.514 48.1045 427.896 48.0088 428.184 47.8174C428.475 47.6214 428.621 47.3617 428.621 47.0381Z" fill="#333333"/>
<path d="M311.67 68.5215H308.916V74H306.445V59.7812H311.445C313.086 59.7812 314.352 60.1491 315.244 60.8848C316.136 61.6204 316.582 62.6849 316.582 64.0781C316.582 65.0286 316.351 65.8262 315.889 66.4707C315.433 67.1087 314.795 67.6003 313.975 67.9453L317.168 73.873V74H314.521L311.67 68.5215ZM308.916 66.5391H311.455C312.288 66.5391 312.939 66.3307 313.408 65.9141C313.877 65.4909 314.111 64.9147 314.111 64.1855C314.111 63.4238 313.893 62.8346 313.457 62.418C313.027 62.0013 312.383 61.7865 311.523 61.7734H308.916V66.5391ZM319.18 66.9492L319.951 59.7812H327.588V61.832H321.924L321.533 65.2305C322.191 64.8529 322.933 64.6641 323.76 64.6641C325.114 64.6641 326.165 65.097 326.914 65.9629C327.669 66.8288 328.047 67.9941 328.047 69.459C328.047 70.9043 327.63 72.0566 326.797 72.916C325.964 73.7689 324.821 74.1953 323.369 74.1953C322.067 74.1953 320.986 73.8275 320.127 73.0918C319.274 72.3496 318.812 71.373 318.74 70.1621H321.035C321.126 70.8522 321.374 71.3828 321.777 71.7539C322.181 72.1185 322.708 72.3008 323.359 72.3008C324.089 72.3008 324.655 72.0404 325.059 71.5195C325.469 70.9987 325.674 70.2891 325.674 69.3906C325.674 68.5247 325.449 67.8411 325 67.3398C324.551 66.832 323.932 66.5781 323.145 66.5781C322.715 66.5781 322.35 66.6367 322.051 66.7539C321.751 66.8646 321.426 67.0859 321.074 67.418L319.18 66.9492ZM330.4 77.2031L329.121 76.4414C329.499 75.849 329.756 75.3314 329.893 74.8887C330.036 74.4525 330.111 74.0065 330.117 73.5508V71.7051H332.256L332.246 73.4141C332.24 74.1042 332.064 74.7943 331.719 75.4844C331.38 76.181 330.941 76.7539 330.4 77.2031ZM341.035 68.0527C340.241 68.8926 339.313 69.3125 338.252 69.3125C337.002 69.3125 336.006 68.8763 335.264 68.0039C334.521 67.125 334.15 65.9727 334.15 64.5469C334.15 63.6094 334.339 62.7598 334.717 61.998C335.094 61.2363 335.632 60.6439 336.328 60.2207C337.025 59.7975 337.832 59.5859 338.75 59.5859C340.182 59.5859 341.318 60.1198 342.158 61.1875C342.998 62.2552 343.418 63.6842 343.418 65.4746V66.1387C343.418 68.7038 342.839 70.6602 341.68 72.0078C340.521 73.3555 338.792 74.0391 336.494 74.0586H336.211V72.0957H336.553C337.952 72.0762 339.027 71.7409 339.775 71.0898C340.524 70.4323 340.944 69.4199 341.035 68.0527ZM338.75 67.457C339.225 67.457 339.671 67.3203 340.088 67.0469C340.505 66.7734 340.827 66.3958 341.055 65.9141V64.9863C341.055 63.9382 340.84 63.0951 340.41 62.457C339.98 61.819 339.424 61.5 338.74 61.5C338.057 61.5 337.51 61.7832 337.1 62.3496C336.696 62.9095 336.494 63.6191 336.494 64.4785C336.494 65.3704 336.699 66.0898 337.109 66.6367C337.52 67.1836 338.066 67.457 338.75 67.457ZM355.137 61.0996L349.453 74H346.963L352.637 61.6855H345.283V59.7812H355.137V61.0996ZM359.785 65.8066H361.23C361.96 65.8001 362.536 65.6113 362.959 65.2402C363.389 64.8691 363.604 64.332 363.604 63.6289C363.604 62.9518 363.424 62.4277 363.066 62.0566C362.715 61.679 362.174 61.4902 361.445 61.4902C360.807 61.4902 360.283 61.6758 359.873 62.0469C359.463 62.4115 359.258 62.89 359.258 63.4824H356.885C356.885 62.7533 357.077 62.0892 357.461 61.4902C357.852 60.8913 358.392 60.4258 359.082 60.0938C359.779 59.7552 360.557 59.5859 361.416 59.5859C362.835 59.5859 363.949 59.944 364.756 60.6602C365.57 61.3698 365.977 62.3594 365.977 63.6289C365.977 64.2669 365.771 64.8691 365.361 65.4355C364.958 65.9954 364.434 66.4186 363.789 66.7051C364.57 66.972 365.163 67.3919 365.566 67.9648C365.977 68.5378 366.182 69.2214 366.182 70.0156C366.182 71.2917 365.742 72.3073 364.863 73.0625C363.991 73.8177 362.842 74.1953 361.416 74.1953C360.049 74.1953 358.929 73.8307 358.057 73.1016C357.184 72.3724 356.748 71.4023 356.748 70.1914H359.121C359.121 70.8164 359.329 71.3242 359.746 71.7148C360.169 72.1055 360.736 72.3008 361.445 72.3008C362.181 72.3008 362.76 72.1055 363.184 71.7148C363.607 71.3242 363.818 70.7578 363.818 70.0156C363.818 69.2669 363.597 68.6908 363.154 68.2871C362.712 67.8835 362.054 67.6816 361.182 67.6816H359.785V65.8066ZM368.896 77.2031L367.617 76.4414C367.995 75.849 368.252 75.3314 368.389 74.8887C368.532 74.4525 368.607 74.0065 368.613 73.5508V71.7051H370.752L370.742 73.4141C370.736 74.1042 370.56 74.7943 370.215 75.4844C369.876 76.181 369.437 76.7539 368.896 77.2031ZM382.363 74H372.803V72.3691L377.539 67.2031C378.223 66.4414 378.708 65.8066 378.994 65.2988C379.287 64.7845 379.434 64.2702 379.434 63.7559C379.434 63.0788 379.242 62.5319 378.857 62.1152C378.48 61.6986 377.969 61.4902 377.324 61.4902C376.556 61.4902 375.96 61.7246 375.537 62.1934C375.114 62.6621 374.902 63.3034 374.902 64.1172H372.529C372.529 63.2513 372.725 62.4733 373.115 61.7832C373.512 61.0866 374.076 60.5462 374.805 60.1621C375.54 59.778 376.387 59.5859 377.344 59.5859C378.724 59.5859 379.811 59.9342 380.605 60.6309C381.406 61.321 381.807 62.278 381.807 63.502C381.807 64.2116 381.605 64.957 381.201 65.7383C380.804 66.513 380.15 67.3952 379.238 68.3848L375.762 72.1055H382.363V74ZM386.914 65.8066H388.359C389.089 65.8001 389.665 65.6113 390.088 65.2402C390.518 64.8691 390.732 64.332 390.732 63.6289C390.732 62.9518 390.553 62.4277 390.195 62.0566C389.844 61.679 389.303 61.4902 388.574 61.4902C387.936 61.4902 387.412 61.6758 387.002 62.0469C386.592 62.4115 386.387 62.89 386.387 63.4824H384.014C384.014 62.7533 384.206 62.0892 384.59 61.4902C384.98 60.8913 385.521 60.4258 386.211 60.0938C386.908 59.7552 387.686 59.5859 388.545 59.5859C389.964 59.5859 391.077 59.944 391.885 60.6602C392.699 61.3698 393.105 62.3594 393.105 63.6289C393.105 64.2669 392.9 64.8691 392.49 65.4355C392.087 65.9954 391.562 66.4186 390.918 66.7051C391.699 66.972 392.292 67.3919 392.695 67.9648C393.105 68.5378 393.311 69.2214 393.311 70.0156C393.311 71.2917 392.871 72.3073 391.992 73.0625C391.12 73.8177 389.971 74.1953 388.545 74.1953C387.178 74.1953 386.058 73.8307 385.186 73.1016C384.313 72.3724 383.877 71.4023 383.877 70.1914H386.25C386.25 70.8164 386.458 71.3242 386.875 71.7148C387.298 72.1055 387.865 72.3008 388.574 72.3008C389.31 72.3008 389.889 72.1055 390.312 71.7148C390.736 71.3242 390.947 70.7578 390.947 70.0156C390.947 69.2669 390.726 68.6908 390.283 68.2871C389.84 67.8835 389.183 67.6816 388.311 67.6816H386.914V65.8066ZM396.172 66.9492L396.943 59.7812H404.58V61.832H398.916L398.525 65.2305C399.183 64.8529 399.925 64.6641 400.752 64.6641C402.106 64.6641 403.158 65.097 403.906 65.9629C404.661 66.8288 405.039 67.9941 405.039 69.459C405.039 70.9043 404.622 72.0566 403.789 72.916C402.956 73.7689 401.813 74.1953 400.361 74.1953C399.059 74.1953 397.979 73.8275 397.119 73.0918C396.266 72.3496 395.804 71.373 395.732 70.1621H398.027C398.118 70.8522 398.366 71.3828 398.77 71.7539C399.173 72.1185 399.701 72.3008 400.352 72.3008C401.081 72.3008 401.647 72.0404 402.051 71.5195C402.461 70.9987 402.666 70.2891 402.666 69.3906C402.666 68.5247 402.441 67.8411 401.992 67.3398C401.543 66.832 400.924 66.5781 400.137 66.5781C399.707 66.5781 399.342 66.6367 399.043 66.7539C398.743 66.8646 398.418 67.0859 398.066 67.418L396.172 66.9492ZM407.393 77.2031L406.113 76.4414C406.491 75.849 406.748 75.3314 406.885 74.8887C407.028 74.4525 407.103 74.0065 407.109 73.5508V71.7051H409.248L409.238 73.4141C409.232 74.1042 409.056 74.7943 408.711 75.4844C408.372 76.181 407.933 76.7539 407.393 77.2031ZM420.566 68.0137C420.566 70.0579 420.182 71.6009 419.414 72.6426C418.652 73.6777 417.49 74.1953 415.928 74.1953C414.391 74.1953 413.232 73.6908 412.451 72.6816C411.676 71.666 411.279 70.1654 411.26 68.1797V65.7188C411.26 63.6745 411.641 62.1413 412.402 61.1191C413.171 60.097 414.339 59.5859 415.908 59.5859C417.464 59.5859 418.623 60.084 419.385 61.0801C420.153 62.0762 420.547 63.5671 420.566 65.5527V68.0137ZM418.193 65.3574C418.193 64.0228 418.011 63.0462 417.646 62.4277C417.282 61.8027 416.702 61.4902 415.908 61.4902C415.133 61.4902 414.564 61.7865 414.199 62.3789C413.835 62.9648 413.643 63.8828 413.623 65.1328V68.3555C413.623 69.6836 413.809 70.6732 414.18 71.3242C414.551 71.9753 415.133 72.3008 415.928 72.3008C416.689 72.3008 417.253 72.0013 417.617 71.4023C417.982 70.7969 418.174 69.8529 418.193 68.5703V65.3574ZM431.934 68.0137C431.934 70.0579 431.549 71.6009 430.781 72.6426C430.02 73.6777 428.857 74.1953 427.295 74.1953C425.758 74.1953 424.6 73.6908 423.818 72.6816C423.044 71.666 422.646 70.1654 422.627 68.1797V65.7188C422.627 63.6745 423.008 62.1413 423.77 61.1191C424.538 60.097 425.706 59.5859 427.275 59.5859C428.831 59.5859 429.99 60.084 430.752 61.0801C431.52 62.0762 431.914 63.5671 431.934 65.5527V68.0137ZM429.561 65.3574C429.561 64.0228 429.378 63.0462 429.014 62.4277C428.649 61.8027 428.07 61.4902 427.275 61.4902C426.501 61.4902 425.931 61.7865 425.566 62.3789C425.202 62.9648 425.01 63.8828 424.99 65.1328V68.3555C424.99 69.6836 425.176 70.6732 425.547 71.3242C425.918 71.9753 426.501 72.3008 427.295 72.3008C428.057 72.3008 428.62 72.0013 428.984 71.4023C429.349 70.7969 429.541 69.8529 429.561 68.5703V65.3574ZM443.301 68.0137C443.301 70.0579 442.917 71.6009 442.148 72.6426C441.387 73.6777 440.225 74.1953 438.662 74.1953C437.126 74.1953 435.967 73.6908 435.186 72.6816C434.411 71.666 434.014 70.1654 433.994 68.1797V65.7188C433.994 63.6745 434.375 62.1413 435.137 61.1191C435.905 60.097 437.074 59.5859 438.643 59.5859C440.199 59.5859 441.357 60.084 442.119 61.0801C442.887 62.0762 443.281 63.5671 443.301 65.5527V68.0137ZM440.928 65.3574C440.928 64.0228 440.745 63.0462 440.381 62.4277C440.016 61.8027 439.437 61.4902 438.643 61.4902C437.868 61.4902 437.298 61.7865 436.934 62.3789C436.569 62.9648 436.377 63.8828 436.357 65.1328V68.3555C436.357 69.6836 436.543 70.6732 436.914 71.3242C437.285 71.9753 437.868 72.3008 438.662 72.3008C439.424 72.3008 439.987 72.0013 440.352 71.4023C440.716 70.7969 440.908 69.8529 440.928 68.5703V65.3574Z" fill="#333333"/>
</svg>
