<svg xmlns="http://www.w3.org/2000/svg" viewBox="0 0 66.7 79.7"><defs><style>.cls-1{fill:#fff;}</style></defs><title>Asset 1</title><g id="Layer_2" data-name="Layer 2"><g id="Layer_1-2" data-name="Layer 1"><path d="M66.7,33.9a7.27,7.27,0,0,0-2-4.4c-1.9-2.2-4.9-3.4-8.8-3.7A7,7,0,0,0,54.2,24c-2.2-1.7-5.6-2.6-10-2.7a11.18,11.18,0,0,0-1.9-1.7,15.56,15.56,0,0,0-7.6-2.5V9c0-.8.1-4.2-2.2-6.6A7.92,7.92,0,0,0,26.4,0a8.44,8.44,0,0,0-6.3,2.4,9,9,0,0,0-2.1,6V37a44.86,44.86,0,0,0-5.2-5c-2.5-1.9-7.2-.9-9.9,1.1A6.46,6.46,0,0,0,.4,40.7c1.8,5,6.3,10,7.4,11.2,1,1.9,5.5,10.2,9.5,13.2,2.1,1.6,3.7,8.2,4.1,12.4l.2,2.2H59.4V69.8c.5-1.4,1.7-4.4,3-5.8,3.1-3.1,4.1-10.9,4.1-13.3V34ZM61.8,50.5c0,2.9-1.2,8.4-2.7,9.9-2.6,2.6-4.2,7.6-4.3,8.1l-.1.3v5.8H26.1c-.2-1.1-.4-2.5-.8-4-1.2-4.8-2.8-7.9-4.9-9.5-2.9-2.2-7-9.3-8.3-11.9l-.2-.3-.2-.3c0-.1-4.9-5.1-6.6-9.7a1.52,1.52,0,0,1,.5-1.8A6.17,6.17,0,0,1,10,35.8c1.5,1.2,6.1,6.1,8.7,9L23,49.6V8.1a3.78,3.78,0,0,1,.8-2.4,3.37,3.37,0,0,1,2.7-.9,3.74,3.74,0,0,1,2.5.8,5.13,5.13,0,0,1,.9,3.1V19.4h0V34.6h4.9V22c4.5.5,5.8,2.4,6,2.7l.2.5v9.4h4.9V26.3c4.2.4,5.8,1.7,6.2,2.3v9.5H57V30.8c4.3.6,5,2.9,5.1,3.4V50.5Z"/><path class="cls-1" d="M61.8,50.5c0,2.9-1.2,8.4-2.7,9.9-2.6,2.6-4.2,7.6-4.3,8.1l-.1.3v5.8H26.1c-.2-1.1-.4-2.5-.8-4-1.2-4.8-2.8-7.9-4.9-9.5-2.9-2.2-7-9.3-8.3-11.9l-.2-.3-.2-.3c0-.1-4.9-5.1-6.6-9.7a1.52,1.52,0,0,1,.5-1.8A6.17,6.17,0,0,1,10,35.8c1.5,1.2,6.1,6.1,8.7,9L23,49.6V8.1a3.78,3.78,0,0,1,.8-2.4,3.37,3.37,0,0,1,2.7-.9,3.74,3.74,0,0,1,2.5.8,5.13,5.13,0,0,1,.9,3.1V19.4h0V34.6h4.9V22c4.5.5,5.8,2.4,6,2.7l.2.5v9.4h4.9V26.3c4.2.4,5.8,1.7,6.2,2.3v9.5H57V30.8c4.3.6,5,2.9,5.1,3.4V50.5Z"/></g></g></svg>